<?xml version="1.0" encoding="UTF-8" standalone="no"?>
<!-- Created with Inkscape (http://www.inkscape.org/) -->

<svg
   xmlns:dc="http://purl.org/dc/elements/1.1/"
   xmlns:cc="http://creativecommons.org/ns#"
   xmlns:rdf="http://www.w3.org/1999/02/22-rdf-syntax-ns#"
   xmlns:svg="http://www.w3.org/2000/svg"
   xmlns="http://www.w3.org/2000/svg"
   xmlns:sodipodi="http://sodipodi.sourceforge.net/DTD/sodipodi-0.dtd"
   xmlns:inkscape="http://www.inkscape.org/namespaces/inkscape"
   width="20in"
   height="30in"
   viewBox="0 0 1800 2700"
   id="svg2"
   version="1.1"
   inkscape:version="0.91 r13725"
   sodipodi:docname="FT_Storch_Sheet4.svg">
  <defs
     id="defs4" />
  <sodipodi:namedview
     id="base"
     pagecolor="#ffffff"
     bordercolor="#666666"
     borderopacity="1.0"
     inkscape:pageopacity="0.0"
     inkscape:pageshadow="2"
     inkscape:zoom="0.175"
     inkscape:cx="2480.2868"
     inkscape:cy="1453.0397"
     inkscape:document-units="in"
     inkscape:current-layer="layer1"
     showgrid="false"
     units="in"
     inkscape:window-width="1680"
     inkscape:window-height="987"
     inkscape:window-x="1912"
     inkscape:window-y="24"
     inkscape:window-maximized="1" />
  <metadata
     id="metadata7">
    <rdf:RDF>
      <cc:Work
         rdf:about="">
        <dc:format>image/svg+xml</dc:format>
        <dc:type
           rdf:resource="http://purl.org/dc/dcmitype/StillImage" />
        <dc:title></dc:title>
        <dc:creator>
          <cc:Agent>
            <dc:title>Design by: Josh Bixler    Plans Drafted by: Dan Sponholz</dc:title>
          </cc:Agent>
        </dc:creator>
        <dc:rights>
          <cc:Agent>
            <dc:title />
          </cc:Agent>
        </dc:rights>
        <dc:publisher>
          <cc:Agent>
            <dc:title>Flite Test</dc:title>
          </cc:Agent>
        </dc:publisher>
      </cc:Work>
    </rdf:RDF>
  </metadata>
  <g
     inkscape:label="Layer 1"
     inkscape:groupmode="layer"
     id="layer1"
     transform="translate(0,1647.6378)">
    <g
       id="g11037"
       transform="translate(-52.527933,123.23861)">
      <path
         id="path6815"
         d="m 386.2348,-629.07423 138.0664,0 m -343.4277,584.4971 204.7314,-582.7051"
         style="fill:none;stroke:#000000;stroke-width:0.9;stroke-linecap:butt;stroke-linejoin:miter;stroke-miterlimit:2.61299992;stroke-dasharray:none;stroke-opacity:1"
         inkscape:connector-curvature="0" />
      <path
         id="path6817"
         d="m 386.2348,558.95304 138.0664,0 M 177.5287,-35.06058 385.7074,557.44434"
         style="fill:none;stroke:#000000;stroke-width:0.9;stroke-linecap:butt;stroke-linejoin:miter;stroke-miterlimit:2.61299992;stroke-dasharray:none;stroke-opacity:1"
         inkscape:connector-curvature="0" />
      <path
         id="path6819"
         d="m 387.5238,564.70024 136.7774,0 m 28.7939,324.9365 c -10.1318,-0.7568 -18.8183,-4.7803 -25.581,-12.583 -42.544,-40.2295 -119.6045,-151.4453 -141.2793,-312.3535 m 397.3926,102.7539 c -59.3213,115.4102 -168.2471,224.4043 -228.6621,222.2852 M 861.5522,375.5303 c 0.4394,23.79395 -1.167,48.96973 -5.1172,75.58595 -5.5371,32.43652 -28.9014,130.42969 -72.2119,215.17579 M 743.9936,115.2471 c 63.8867,59.47267 115.0781,142.88086 117.539,259.14063 M 577.265,5.43754 c 0,1.61133 0.6885,2.11914 1.294,2.36816 50.9375,21.17188 108.2617,54.6289 164.1943,106.28907"
         style="fill:none;stroke:#000000;stroke-width:0.9;stroke-linecap:butt;stroke-linejoin:miter;stroke-miterlimit:2.61299992;stroke-dasharray:none;stroke-opacity:1"
         inkscape:connector-curvature="0" />
      <path
         id="path6821"
         d="m 524.306,-634.82123 0,1199.52147"
         style="fill:none;stroke:#ff0000;stroke-width:0.9;stroke-linecap:butt;stroke-linejoin:miter;stroke-miterlimit:2.61299992;stroke-dasharray:none;stroke-opacity:1"
         inkscape:connector-curvature="0" />
      <path
         id="path6823"
         d="m 577.265,-73.74218 0,77.30468"
         style="fill:none;stroke:#000000;stroke-width:0.9;stroke-linecap:butt;stroke-linejoin:miter;stroke-miterlimit:2.61299992;stroke-dasharray:none;stroke-opacity:1"
         inkscape:connector-curvature="0" />
      <path
         id="path6825"
         d="m 392.3285,-634.82123 131.9776,0 m 32.1094,-325.0684 c -11.5577,0.068 -21.4112,4.0723 -28.9014,12.7148 -42.544,40.2295 -119.6045,151.4454 -141.2793,312.3536 m 397.1289,-103.2618 c -58.584,-113.6865 -165.1758,-220.9912 -225.957,-221.8017 m 298.8916,437.8515 c -5.8057,-33.3691 -29.3262,-131.2158 -72.6709,-215.542 M 577.265,-75.55859 c 0,-1.61621 0.6885,-2.11913 1.294,-2.36816 121.7578,-50.61524 318.2275,-171.38184 277.876,-443.31058"
         style="fill:none;stroke:#000000;stroke-width:0.9;stroke-linecap:butt;stroke-linejoin:miter;stroke-miterlimit:2.61299992;stroke-dasharray:none;stroke-opacity:1"
         inkscape:connector-curvature="0" />
      <path
         id="path6837"
         d="m 127.9437,-120.67089 -8.6914,-1.43555"
         style="fill:none;stroke:#000000;stroke-width:0.9;stroke-linecap:butt;stroke-linejoin:miter;stroke-miterlimit:2.61299992;stroke-dasharray:none;stroke-opacity:1"
         inkscape:connector-curvature="0" />
      <path
         id="path6841"
         d="m 551.3031,69.88087 90,0"
         style="fill:none;stroke:#000000;stroke-width:0.9;stroke-linecap:butt;stroke-linejoin:miter;stroke-miterlimit:2.61299992;stroke-dasharray:none;stroke-opacity:1"
         inkscape:connector-curvature="0" />
      <path
         id="path6843"
         d="m 479.306,426.19922 c 1.2354,0 2.2461,-1.01074 2.2461,-2.24609 0,-1.24024 -1.0107,-2.25098 -2.2461,-2.25098 -1.2402,0 -2.251,1.01074 -2.251,2.25098 0,1.23535 1.0108,2.24609 2.251,2.24609 z m 0,0"
         style="fill:none;stroke:#000000;stroke-width:0.9;stroke-linecap:butt;stroke-linejoin:miter;stroke-miterlimit:2.61299992;stroke-dasharray:none;stroke-opacity:1"
         inkscape:connector-curvature="0" />
      <path
         id="path6855"
         d="m 347.9388,-42.71191 86.3623,0 0,15.30273 -180,0 0,-15.30273 84.2627,0"
         style="fill:none;stroke:#000000;stroke-width:0.9;stroke-linecap:butt;stroke-linejoin:miter;stroke-miterlimit:2.61299992;stroke-dasharray:none;stroke-opacity:1"
         inkscape:connector-curvature="0" />
    </g>
    <path
       inkscape:connector-curvature="0"
       style="fill:none;stroke:#000000;stroke-width:0.89999998;stroke-linecap:butt;stroke-linejoin:miter;stroke-miterlimit:2.61299992;stroke-dasharray:none;stroke-opacity:1"
       d="m 1212.0523,-177.11831 0,111.518595 -168.6523,0 m 101.6504,-167.255895 67.0019,-36.7431 0,84.6533 M 886.05615,-90.829213 1137.0523,-228.47081 m -103.042,162.871095 -193.95505,0 38.7255,-21.235398"
       id="path6867" />
    <path
       inkscape:connector-curvature="0"
       style="fill:none;stroke:#000000;stroke-width:0.89999998;stroke-linecap:butt;stroke-linejoin:miter;stroke-miterlimit:2.61299992;stroke-dasharray:none;stroke-opacity:1"
       d="m 853.25504,68.572926 0,132.299804 m 84.9219,-202.4999944 -20.9424,67.4999904 -63.9795,0 m 376.27926,-67.4999904 -288.65716,0 m 288.65716,199.7997944 0,-197.0995944 M 855.95524,200.87273 l 373.57906,0"
       id="path6869" />
    <g
       id="g11119"
       transform="translate(954.28573,-114.28572)">
      <path
         id="path6827"
         d="m -810.99884,-420.96873 50.9033,-324.3799 -14.3505,-2.3681 13.5302,-96.4551 -15.0976,-2.4903 29.4824,-178.52047 14.917,3.4131 14.9023,-89.707 m -178.2324,1128.442332 67.3975,-426.118162 14.3164,2.3633 1.914,-12.1582 m 439.4092,-634.68747 -27.4414,166.3232 -273.2617,74.30177 -208.0176,832.338842"
         style="fill:none;stroke:#000000;stroke-width:0.9;stroke-linecap:butt;stroke-linejoin:miter;stroke-miterlimit:2.61299992;stroke-dasharray:none;stroke-opacity:1"
         inkscape:connector-curvature="0" />
      <path
         id="path6829"
         d="m -399.34834,-887.3115 c 57.4463,10.1319 183.6963,-16.8799 215.6933,-143.3984 9.7364,-261.1768 -334.5312,-400.6543 -443.3056,-421.8603 -69.8682,-11.3624 -102.9688,30.5322 -112.1973,60.9082 l -98.0811,261.2451"
         style="fill:none;stroke:#000000;stroke-width:0.9;stroke-linecap:butt;stroke-linejoin:miter;stroke-miterlimit:2.61299992;stroke-dasharray:none;stroke-opacity:1"
         inkscape:connector-curvature="0" />
      <path
         id="path6831"
         d="m -371.90704,-1053.6347 -465.332,-76.7774"
         style="fill:none;stroke:#ff0000;stroke-width:0.9;stroke-linecap:butt;stroke-linejoin:miter;stroke-miterlimit:2.61299992;stroke-dasharray:none;stroke-opacity:1"
         inkscape:connector-curvature="0" />
      <path
         id="path6833"
         d="m -857.28294,-977.8046 97.2168,16.04 m -83.501,-169.7412 -41.792,-7.2119 c -7.0898,-1.2989 -11.1767,-0.3516 -10.0097,9.038 l 33.1005,151.0499"
         style="fill:none;stroke:#000000;stroke-width:0.9;stroke-linecap:butt;stroke-linejoin:miter;stroke-miterlimit:2.61299992;stroke-dasharray:none;stroke-opacity:1"
         inkscape:connector-curvature="0" />
      <path
         id="path6835"
         d="m -724.90014,-1062.4531 0,0"
         style="fill:none;stroke:#000000;stroke-width:0.9;stroke-linecap:butt;stroke-linejoin:miter;stroke-miterlimit:2.61299992;stroke-dasharray:none;stroke-opacity:1"
         inkscape:connector-curvature="0" />
      <path
         id="path6839"
         d="m -776.95084,-1239.0498 -14.6534,88.7989"
         style="fill:none;stroke:#000000;stroke-width:0.9;stroke-linecap:butt;stroke-linejoin:miter;stroke-miterlimit:2.61299992;stroke-dasharray:none;stroke-opacity:1"
         inkscape:connector-curvature="0" />
      <path
         id="path6845"
         d="m -533.76734,-351.82323 c 1.2402,0 2.251,-1.0107 2.251,-2.251 0,-1.2353 -1.0108,-2.251 -2.251,-2.251 -1.2402,0 -2.251,1.0157 -2.251,2.251 0,1.2403 1.0108,2.251 2.251,2.251 z m 0,0"
         style="fill:none;stroke:#000000;stroke-width:0.9;stroke-linecap:butt;stroke-linejoin:miter;stroke-miterlimit:2.61299992;stroke-dasharray:none;stroke-opacity:1"
         inkscape:connector-curvature="0" />
      <path
         id="path6847"
         d="m -448.04954,-1020.5879 c 0.2002,-1.2255 1.3574,-2.0556 2.583,-1.8554 1.2304,0.2051 2.0605,1.3623 1.8554,2.5879 -0.2002,1.2256 -1.3574,2.0556 -2.5878,1.8506 -1.2256,-0.2002 -2.0557,-1.3575 -1.8506,-2.5831 z m 0,0"
         style="fill:none;stroke:#000000;stroke-width:0.9;stroke-linecap:butt;stroke-linejoin:miter;stroke-miterlimit:2.61299992;stroke-dasharray:none;stroke-opacity:1"
         inkscape:connector-curvature="0" />
      <path
         id="path6849"
         d="m -768.87484,-1186.3984 c 38.4913,-26.4014 79.6045,-18.6084 108.711,14.8242"
         style="fill:none;stroke:#191919;stroke-width:0.63749999;stroke-linecap:butt;stroke-linejoin:bevel;stroke-miterlimit:2.61299992;stroke-opacity:1"
         inkscape:connector-curvature="0" />
      <path
         id="path6851"
         d="m -716.96064,-1110.5683 57.124,-60.6299"
         style="fill:none;stroke:#191919;stroke-width:0.63749999;stroke-linecap:butt;stroke-linejoin:bevel;stroke-miterlimit:2.61299992;stroke-opacity:1"
         inkscape:connector-curvature="0" />
      <path
         id="path6853"
         d="m -769.58274,-1185.9101 37.5244,72.8516 -14.4727,87.8759"
         style="fill:none;stroke:#191919;stroke-width:0.63749999;stroke-linecap:butt;stroke-linejoin:bevel;stroke-miterlimit:2.61299992;stroke-opacity:1"
         inkscape:connector-curvature="0" />
    </g>
    <g
       id="g11003"
       transform="translate(-280.98042,-112.27561)">
      <path
         id="path6889"
         d="m 1176.7757,-1201.0162 c 1.2403,0 2.2462,-1.0108 2.2462,-2.251 0,-1.2451 -1.0059,-2.251 -2.2462,-2.251 -1.2451,0 -2.2509,1.0059 -2.2509,2.251 0,1.2402 1.0059,2.251 2.2509,2.251 z m 0,0"
         style="fill:none;stroke:#000000;stroke-width:0.89999998;stroke-linecap:butt;stroke-linejoin:bevel;stroke-miterlimit:2.61299992;stroke-dasharray:none;stroke-opacity:1"
         inkscape:connector-curvature="0" />
      <path
         id="path6891"
         d="m 1450.8237,-296.0455 0,-1035 -15.3028,0 0,1035 z m 0,0"
         style="fill:none;stroke:#ff0000;stroke-width:0.89999998;stroke-linecap:butt;stroke-linejoin:bevel;stroke-miterlimit:2.61299992;stroke-dasharray:none;stroke-opacity:1"
         inkscape:connector-curvature="0" />
      <path
         id="path6893"
         d="m 1255.5257,-296.0455 0,-1035 -15.3028,0 0,1035 z m 0,0"
         style="fill:none;stroke:#ff0000;stroke-width:0.89999998;stroke-linecap:butt;stroke-linejoin:bevel;stroke-miterlimit:2.61299992;stroke-dasharray:none;stroke-opacity:1"
         inkscape:connector-curvature="0" />
      <path
         id="path6895"
         d="m 1450.8237,-296.0455 112.5,0"
         style="fill:none;stroke:#000000;stroke-width:0.89999998;stroke-linecap:butt;stroke-linejoin:bevel;stroke-miterlimit:2.61299992;stroke-dasharray:none;stroke-opacity:1"
         inkscape:connector-curvature="0" />
      <path
         id="path6897"
         d="m 1563.3237,-301.4459 0,-354.5996 17.998,0 0,-90 -17.998,0 0,-540 17.998,0"
         style="fill:none;stroke:#000000;stroke-width:0.89999998;stroke-linecap:butt;stroke-linejoin:bevel;stroke-miterlimit:2.61299992;stroke-dasharray:none;stroke-opacity:1"
         inkscape:connector-curvature="0" />
      <path
         id="path6899"
         d="m 1581.3217,-1289.6442 0,-86.4013 -17.9981,0"
         style="fill:none;stroke:#000000;stroke-width:0.89999998;stroke-linecap:butt;stroke-linejoin:bevel;stroke-miterlimit:2.61299992;stroke-dasharray:none;stroke-opacity:1"
         inkscape:connector-curvature="0" />
      <path
         id="path6901"
         d="m 1450.8237,-1331.0455 -210.6006,0"
         style="fill:none;stroke:#000000;stroke-width:0.89999998;stroke-linecap:butt;stroke-linejoin:bevel;stroke-miterlimit:2.61299992;stroke-dasharray:none;stroke-opacity:1"
         inkscape:connector-curvature="0" />
      <path
         id="path6903"
         d="m 1240.2231,-296.0455 210.6006,0"
         style="fill:none;stroke:#000000;stroke-width:0.89999998;stroke-linecap:butt;stroke-linejoin:bevel;stroke-miterlimit:2.61299992;stroke-dasharray:none;stroke-opacity:1"
         inkscape:connector-curvature="0" />
      <path
         id="path6905"
         d="m 1127.7231,-1376.0455 -17.9982,0 0,86.4013"
         style="fill:none;stroke:#000000;stroke-width:0.89999998;stroke-linecap:butt;stroke-linejoin:bevel;stroke-miterlimit:2.61299992;stroke-dasharray:none;stroke-opacity:1"
         inkscape:connector-curvature="0" />
      <path
         id="path6907"
         d="m 1109.7249,-1286.0455 17.998,0 0,540 -17.998,0 0,90 17.998,0 0,355.498"
         style="fill:none;stroke:#000000;stroke-width:0.89999998;stroke-linecap:butt;stroke-linejoin:bevel;stroke-miterlimit:2.61299992;stroke-dasharray:none;stroke-opacity:1"
         inkscape:connector-curvature="0" />
      <path
         id="path6909"
         d="m 1127.7231,-296.0455 112.5,0"
         style="fill:none;stroke:#000000;stroke-width:0.89999998;stroke-linecap:butt;stroke-linejoin:bevel;stroke-miterlimit:2.61299992;stroke-dasharray:none;stroke-opacity:1"
         inkscape:connector-curvature="0" />
      <path
         id="path6911"
         d="m 1233.4749,-584.8004 c 1.2403,0 2.2511,-1.0108 2.2511,-2.251 0,-1.2451 -1.0108,-2.251 -2.2511,-2.251 -1.2451,0 -2.2509,1.0059 -2.2509,2.251 0,1.2402 1.0059,2.251 2.2509,2.251 z m 0,0"
         style="fill:none;stroke:#000000;stroke-width:0.89999998;stroke-linecap:butt;stroke-linejoin:bevel;stroke-miterlimit:2.61299992;stroke-dasharray:none;stroke-opacity:1"
         inkscape:connector-curvature="0" />
      <path
         id="path6913"
         d="m 1457.5718,-584.8004 c 1.2451,0 2.2509,-1.0108 2.2509,-2.251 0,-1.2451 -1.0058,-2.251 -2.2509,-2.251 -1.2403,0 -2.2511,1.0059 -2.2511,2.251 0,1.2402 1.0107,2.251 2.2511,2.251 z m 0,0"
         style="fill:none;stroke:#000000;stroke-width:0.89999998;stroke-linecap:butt;stroke-linejoin:bevel;stroke-miterlimit:2.61299992;stroke-dasharray:none;stroke-opacity:1"
         inkscape:connector-curvature="0" />
      <path
         id="path6915"
         d="m 1233.4749,-413.0426 c 1.2403,0 2.2511,-1.0059 2.2511,-2.2461 0,-1.2452 -1.0108,-2.251 -2.2511,-2.251 -1.2451,0 -2.2509,1.0058 -2.2509,2.251 0,1.2402 1.0059,2.2461 2.2509,2.2461 z m 0,0"
         style="fill:none;stroke:#000000;stroke-width:0.89999998;stroke-linecap:butt;stroke-linejoin:bevel;stroke-miterlimit:2.61299992;stroke-dasharray:none;stroke-opacity:1"
         inkscape:connector-curvature="0" />
      <path
         id="path6917"
         d="m 1457.5718,-413.0426 c 1.2451,0 2.2509,-1.0059 2.2509,-2.2461 0,-1.2452 -1.0058,-2.251 -2.2509,-2.251 -1.2403,0 -2.2511,1.0058 -2.2511,2.251 0,1.2402 1.0107,2.2461 2.2511,2.2461 z m 0,0"
         style="fill:none;stroke:#000000;stroke-width:0.89999998;stroke-linecap:butt;stroke-linejoin:bevel;stroke-miterlimit:2.61299992;stroke-dasharray:none;stroke-opacity:1"
         inkscape:connector-curvature="0" />
      <path
         id="path6919"
         d="m 1514.2708,-1201.0162 c 1.2452,0 2.2511,-1.0108 2.2511,-2.251 0,-1.2451 -1.0059,-2.251 -2.2511,-2.251 -1.2402,0 -2.246,1.0059 -2.246,2.251 0,1.2402 1.0059,2.251 2.246,2.251 z m 0,0"
         style="fill:none;stroke:#000000;stroke-width:0.89999998;stroke-linecap:butt;stroke-linejoin:bevel;stroke-miterlimit:2.61299992;stroke-dasharray:none;stroke-opacity:1"
         inkscape:connector-curvature="0" />
      <path
         id="path6921"
         d="m 1563.3237,-1376.0455 0,-60.1612"
         style="fill:none;stroke:#000000;stroke-width:0.89999998;stroke-linecap:butt;stroke-linejoin:bevel;stroke-miterlimit:2.61299992;stroke-dasharray:none;stroke-opacity:1"
         inkscape:connector-curvature="0" />
      <path
         id="path6923"
         d="m 1563.3237,-1436.2067 c 0,-11.2451 -14.209,-12.788 -21.4112,-4.1455 l -91.0888,109.3067"
         style="fill:none;stroke:#000000;stroke-width:0.89999998;stroke-linecap:butt;stroke-linejoin:bevel;stroke-miterlimit:2.61299992;stroke-dasharray:none;stroke-opacity:1"
         inkscape:connector-curvature="0" />
      <path
         id="path6925"
         d="m 1127.7231,-1376.0455 0,-60.1661"
         style="fill:none;stroke:#000000;stroke-width:0.89999998;stroke-linecap:butt;stroke-linejoin:bevel;stroke-miterlimit:2.61299992;stroke-dasharray:none;stroke-opacity:1"
         inkscape:connector-curvature="0" />
      <path
         id="path6927"
         d="m 1127.7231,-1436.2116 c 0,-11.2402 14.2089,-12.7832 21.411,-4.1455 l 91.089,109.3116"
         style="fill:none;stroke:#000000;stroke-width:0.89999998;stroke-linecap:butt;stroke-linejoin:bevel;stroke-miterlimit:2.61299992;stroke-dasharray:none;stroke-opacity:1"
         inkscape:connector-curvature="0" />
    </g>
    <g
       id="g11105"
       transform="translate(-577.8421,20.34412)">
      <path
         id="path6861"
         d="m 1593.1034,364.044 -26.6406,0 0,-67.5 29.375,0 m 9.58,0 28.545,0 0,67.5 -31.9678,0"
         style="fill:none;stroke:#000000;stroke-width:0.89999998;stroke-linecap:butt;stroke-linejoin:miter;stroke-miterlimit:2.61299992;stroke-dasharray:none;stroke-opacity:1"
         inkscape:connector-curvature="0" />
      <path
         id="path6863"
         d="m 1593.1034,447.1397 -26.6406,0 0,-67.5 29.375,0 m 9.58,0 28.545,0 0,67.5 -31.9678,0"
         style="fill:none;stroke:#000000;stroke-width:0.89999998;stroke-linecap:butt;stroke-linejoin:miter;stroke-miterlimit:2.61299992;stroke-dasharray:none;stroke-opacity:1"
         inkscape:connector-curvature="0" />
      <path
         id="path6865"
         d="m 1593.1034,528.2286 -26.6406,0 0,-67.5 29.375,0 m 9.58,0 28.545,0 0,67.5 -31.9678,0"
         style="fill:none;stroke:#000000;stroke-width:0.89999998;stroke-linecap:butt;stroke-linejoin:miter;stroke-miterlimit:2.61299992;stroke-dasharray:none;stroke-opacity:1"
         inkscape:connector-curvature="0" />
      <path
         id="path6875"
         d="m 1583.3378,494.4786 33.75,0"
         style="fill:none;stroke:#000000;stroke-width:0.89999998;stroke-linecap:butt;stroke-linejoin:miter;stroke-miterlimit:2.61299992;stroke-dasharray:none;stroke-opacity:1"
         inkscape:connector-curvature="0" />
      <path
         id="path6877"
         d="m 1687.657,364.6258 -26.6406,0 0,-67.5 29.375,0 m 9.58,0 28.545,0 0,67.5 -31.9678,0"
         style="fill:none;stroke:#000000;stroke-width:0.89999998;stroke-linecap:butt;stroke-linejoin:miter;stroke-miterlimit:2.61299992;stroke-dasharray:none;stroke-opacity:1"
         inkscape:connector-curvature="0" />
      <path
         id="path6879"
         d="m 1687.657,447.7215 -26.6406,0 0,-67.5 29.375,0 m 9.58,0 28.545,0 0,67.5 -31.9678,0"
         style="fill:none;stroke:#000000;stroke-width:0.89999998;stroke-linecap:butt;stroke-linejoin:miter;stroke-miterlimit:2.61299992;stroke-dasharray:none;stroke-opacity:1"
         inkscape:connector-curvature="0" />
      <path
         id="path6881"
         d="m 1687.657,528.8055 -26.6406,0 0,-67.5 29.375,0 m 9.58,0 28.545,0 0,67.5 -31.9678,0"
         style="fill:none;stroke:#000000;stroke-width:0.89999998;stroke-linecap:butt;stroke-linejoin:miter;stroke-miterlimit:2.61299992;stroke-dasharray:none;stroke-opacity:1"
         inkscape:connector-curvature="0" />
      <path
         id="path6883"
         d="m 1677.8914,330.8758 33.75,0"
         style="fill:none;stroke:#000000;stroke-width:0.89999998;stroke-linecap:butt;stroke-linejoin:miter;stroke-miterlimit:2.61299992;stroke-dasharray:none;stroke-opacity:1"
         inkscape:connector-curvature="0" />
      <path
         id="path6885"
         d="m 1677.8914,413.9715 33.75,0"
         style="fill:none;stroke:#000000;stroke-width:0.89999998;stroke-linecap:butt;stroke-linejoin:miter;stroke-miterlimit:2.61299992;stroke-dasharray:none;stroke-opacity:1"
         inkscape:connector-curvature="0" />
      <path
         id="path6887"
         d="m 1677.8914,495.0555 33.75,0"
         style="fill:none;stroke:#000000;stroke-width:0.89999998;stroke-linecap:butt;stroke-linejoin:miter;stroke-miterlimit:2.61299992;stroke-dasharray:none;stroke-opacity:1"
         inkscape:connector-curvature="0" />
      <path
         id="path6871"
         d="m 1581.1863,331.99183 33.75,0"
         style="fill:none;stroke:#000000;stroke-width:0.89999998;stroke-linecap:butt;stroke-linejoin:miter;stroke-miterlimit:2.61299992;stroke-dasharray:none;stroke-opacity:1"
         inkscape:connector-curvature="0" />
      <path
         id="path6873"
         d="m 1581.1863,415.08753 33.75,0"
         style="fill:none;stroke:#000000;stroke-width:0.89999998;stroke-linecap:butt;stroke-linejoin:miter;stroke-miterlimit:2.61299992;stroke-dasharray:none;stroke-opacity:1"
         inkscape:connector-curvature="0" />
    </g>
    <g
       id="g12962"
       transform="translate(-1010.1526,957.62463)">
      <path
         id="path6767"
         d="m 2753.1763,-2471.2741 -86.4014,0 0.9034,2013.3593 85.498,0 m 0,-1094.3359 0,-911.9922 m 0,2001.1719 0,-1073.7305"
         style="fill:none;stroke:#000000;stroke-width:0.89999998;stroke-linecap:butt;stroke-linejoin:miter;stroke-miterlimit:2.61299992;stroke-dasharray:none;stroke-opacity:1"
         inkscape:connector-curvature="0" />
      <path
         id="path6769"
         d="m 2708.1763,-2463.5935 0,1997.9981"
         style="fill:none;stroke:#000000;stroke-width:0.89999998;stroke-linecap:butt;stroke-linejoin:miter;stroke-miterlimit:2.61299992;stroke-dasharray:none;stroke-opacity:1"
         inkscape:connector-curvature="0" />
      <path
         id="path6771"
         d="m 2366.8237,-2312.0554 0,-154.3945 c 0,-3.7012 6.0449,-6.7236 13.4424,-6.7236 l 43.0078,0 m -56.4502,1492.4707 0,-1321.1377 m 53.8184,2011.167 -40.376,0 c -7.3877,0 -13.4424,-3.0225 -13.4424,-6.7188 l 0,-672.168 m 135,0.9278 0,671.2402 c 0,3.6914 -6.0498,6.7188 -13.4424,6.7188 l -56.1621,0 m 69.6045,-2006.5235 0,1319.2822 m -67.5,-1495.2587 54.0576,0 c 7.3926,0 13.4424,3.0273 13.4424,6.7236 l 0,159.9658"
         style="fill:none;stroke:#000000;stroke-width:0.89999998;stroke-linecap:butt;stroke-linejoin:miter;stroke-miterlimit:2.61299992;stroke-dasharray:none;stroke-opacity:1"
         inkscape:connector-curvature="0" />
      <path
         id="path6797"
         d="m 2434.3237,-2473.1735 0,2182.5"
         style="fill:none;stroke:#ff0000;stroke-width:0.89999998;stroke-linecap:butt;stroke-linejoin:miter;stroke-miterlimit:2.61299992;stroke-dasharray:none;stroke-opacity:1"
         inkscape:connector-curvature="0" />
      <path
         id="path6799"
         d="m 2501.8237,-2466.4499 c 0,-3.7012 6.0449,-6.7237 13.4424,-6.7237 l 43.0078,0 m -4.4287,2182.5 -38.5791,0 c -7.3877,0 -13.4424,-3.0274 -13.4424,-6.7236 m 67.5,-2175.7764 54.0576,0 c 7.3926,0 13.4424,3.0274 13.4424,6.7237 l 0,2169.0527 c 0,3.6962 -6.0498,6.7236 -13.4424,6.7236 l -56.1621,0"
         style="fill:none;stroke:#000000;stroke-width:0.89999998;stroke-linecap:butt;stroke-linejoin:miter;stroke-miterlimit:2.61299992;stroke-dasharray:none;stroke-opacity:1"
         inkscape:connector-curvature="0" />
      <path
         id="path6801"
         d="m 2569.3237,-2473.1735 0,2182.5"
         style="fill:none;stroke:#ff0000;stroke-width:0.89999998;stroke-linecap:butt;stroke-linejoin:miter;stroke-miterlimit:2.61299992;stroke-dasharray:none;stroke-opacity:1"
         inkscape:connector-curvature="0" />
      <path
         id="path6803"
         d="m 2586.1987,-2293.1735 33.75,0"
         style="fill:none;stroke:#ff0000;stroke-width:0.89999998;stroke-linecap:butt;stroke-linejoin:miter;stroke-miterlimit:2.61299992;stroke-dasharray:none;stroke-opacity:1"
         inkscape:connector-curvature="0" />
      <path
         id="path6805"
         d="m 2586.1987,-1381.9235 33.75,0"
         style="fill:none;stroke:#ff0000;stroke-width:0.89999998;stroke-linecap:butt;stroke-linejoin:miter;stroke-miterlimit:2.61299992;stroke-dasharray:none;stroke-opacity:1"
         inkscape:connector-curvature="0" />
      <path
         id="path6807"
         d="m 2586.1987,-470.6736 33.75,0"
         style="fill:none;stroke:#ff0000;stroke-width:0.89999998;stroke-linecap:butt;stroke-linejoin:miter;stroke-miterlimit:2.61299992;stroke-dasharray:none;stroke-opacity:1"
         inkscape:connector-curvature="0" />
      <path
         id="path6809"
         d="m 2383.6987,-2293.1735 33.75,0"
         style="fill:none;stroke:#ff0000;stroke-width:0.89999998;stroke-linecap:butt;stroke-linejoin:miter;stroke-miterlimit:2.61299992;stroke-dasharray:none;stroke-opacity:1"
         inkscape:connector-curvature="0" />
      <path
         id="path6811"
         d="m 2383.6987,-1381.9235 33.75,0"
         style="fill:none;stroke:#ff0000;stroke-width:0.89999998;stroke-linecap:butt;stroke-linejoin:miter;stroke-miterlimit:2.61299992;stroke-dasharray:none;stroke-opacity:1"
         inkscape:connector-curvature="0" />
      <path
         id="path6813"
         d="m 2383.6987,-470.6736 33.75,0"
         style="fill:none;stroke:#ff0000;stroke-width:0.89999998;stroke-linecap:butt;stroke-linejoin:miter;stroke-miterlimit:2.61299992;stroke-dasharray:none;stroke-opacity:1"
         inkscape:connector-curvature="0" />
    </g>
  </g>
</svg>
