<?xml version="1.0" encoding="UTF-8" standalone="no"?>
<!-- Created with Inkscape (http://www.inkscape.org/) -->

<svg
   xmlns:dc="http://purl.org/dc/elements/1.1/"
   xmlns:cc="http://creativecommons.org/ns#"
   xmlns:rdf="http://www.w3.org/1999/02/22-rdf-syntax-ns#"
   xmlns:svg="http://www.w3.org/2000/svg"
   xmlns="http://www.w3.org/2000/svg"
   xmlns:sodipodi="http://sodipodi.sourceforge.net/DTD/sodipodi-0.dtd"
   xmlns:inkscape="http://www.inkscape.org/namespaces/inkscape"
   width="20in"
   height="30in"
   viewBox="0 0 1800 2700"
   id="svg2"
   version="1.1"
   inkscape:version="0.91 r13725"
   sodipodi:docname="FT_Storch_Sheet3.svg">
  <defs
     id="defs4" />
  <sodipodi:namedview
     id="base"
     pagecolor="#ffffff"
     bordercolor="#666666"
     borderopacity="1.0"
     inkscape:pageopacity="0.0"
     inkscape:pageshadow="2"
     inkscape:zoom="0.35"
     inkscape:cx="709.85625"
     inkscape:cy="1938.121"
     inkscape:document-units="in"
     inkscape:current-layer="layer1"
     showgrid="false"
     units="in"
     inkscape:window-width="1680"
     inkscape:window-height="987"
     inkscape:window-x="1912"
     inkscape:window-y="24"
     inkscape:window-maximized="1" />
  <metadata
     id="metadata7">
    <rdf:RDF>
      <cc:Work
         rdf:about="">
        <dc:format>image/svg+xml</dc:format>
        <dc:type
           rdf:resource="http://purl.org/dc/dcmitype/StillImage" />
        <dc:title></dc:title>
        <dc:creator>
          <cc:Agent>
            <dc:title>Design by: Josh Bixler    Plans Drafted by: Dan Sponholz</dc:title>
          </cc:Agent>
        </dc:creator>
        <dc:rights>
          <cc:Agent>
            <dc:title />
          </cc:Agent>
        </dc:rights>
        <dc:publisher>
          <cc:Agent>
            <dc:title>Flite Test</dc:title>
          </cc:Agent>
        </dc:publisher>
      </cc:Work>
    </rdf:RDF>
  </metadata>
  <g
     inkscape:label="Layer 1"
     inkscape:groupmode="layer"
     id="layer1"
     transform="translate(0,1647.6378)">
    <g
       id="g10616"
       transform="translate(2.0203051,-18.182746)">
      <path
         id="path6579"
         d="m 1336.8646,-860.57597 c 73.4814,-235.70803 140.6055,-452.86133 196.9482,-672.04593 M 1083.7934,-12.226351 c 87.744,-320.039119 173.6376,-593.579119 252.2753,-845.810519 m -400.52737,826.977519 142.02157,18.042"
         style="fill:none;stroke:#000000;stroke-width:0.89999998;stroke-linecap:butt;stroke-linejoin:miter;stroke-miterlimit:2.61299992;stroke-dasharray:none;stroke-opacity:1"
         inkscape:connector-curvature="0" />
      <path
         id="path6581"
         d="m 1014.6381,-79.838651 32.583,-267.446319 -19.1162,-2.3291 -32.57327,267.377919"
         style="fill:none;stroke:#000000;stroke-width:0.89999998;stroke-linecap:butt;stroke-linejoin:miter;stroke-miterlimit:2.61299992;stroke-dasharray:none;stroke-opacity:1"
         inkscape:connector-curvature="0" />
      <path
         id="path6583"
         d="m 1561.7278,-1534.3992 -417.9442,-49.7559 -9.585,-1.0498"
         style="fill:none;stroke:#000000;stroke-width:0.89999998;stroke-linecap:butt;stroke-linejoin:miter;stroke-miterlimit:2.61299992;stroke-dasharray:none;stroke-opacity:1"
         inkscape:connector-curvature="0" />
      <path
         id="path6585"
         d="m 1128.5737,-1585.825 -170.62017,1553.803749 15.1806,1.9239 L 1143.7836,-1584.155 Z m 0,0"
         style="fill:none;stroke:#ff0000;stroke-width:0.89999998;stroke-linecap:butt;stroke-linejoin:miter;stroke-miterlimit:2.61299992;stroke-dasharray:none;stroke-opacity:1"
         inkscape:connector-curvature="0" />
      <path
         id="path6587"
         d="m 964.29623,-181.30347 11.9726,-218.711 -14.4922,-0.791 -11.9726,218.7109"
         style="fill:none;stroke:#000000;stroke-width:0.89999998;stroke-linecap:butt;stroke-linejoin:miter;stroke-miterlimit:2.61299992;stroke-dasharray:none;stroke-opacity:1"
         inkscape:connector-curvature="0" />
      <path
         id="path6589"
         d="m 1128.5737,-1585.825 -188.75987,-10.332 -9.5019,0"
         style="fill:none;stroke:#000000;stroke-width:0.89999998;stroke-linecap:butt;stroke-linejoin:miter;stroke-miterlimit:2.61299992;stroke-dasharray:none;stroke-opacity:1"
         inkscape:connector-curvature="0" />
      <path
         id="path6591"
         d="m 618.28063,-929.44317 c -45.1416,-231.47943 -86.0791,-446.01563 -116.9141,-661.33303 m 211.8164,1156.28913 c -32.0996,-174.9073 -64.0918,-336.9775 -94.2236,-491.4697 m 163.7842,895.610319 c -22.4366,-140.620119 -45.4737,-272.695319 -68.462,-398.154319 m 217.8858,395.615219 -143.3545,2.4365"
         style="fill:none;stroke:#000000;stroke-width:0.89999998;stroke-linecap:butt;stroke-linejoin:miter;stroke-miterlimit:2.61299992;stroke-dasharray:none;stroke-opacity:1"
         inkscape:connector-curvature="0" />
      <path
         id="path6593"
         d="m 919.35963,-1596.1082 -416.8945,3.8037"
         style="fill:none;stroke:#000000;stroke-width:0.89999998;stroke-linecap:butt;stroke-linejoin:miter;stroke-miterlimit:2.61299992;stroke-dasharray:none;stroke-opacity:1"
         inkscape:connector-curvature="0" />
      <path
         id="path6595"
         d="m 939.81383,-1596.157 0,1563.139649 -15.2979,0.2589 0,-1563.398549 z m 0,0"
         style="fill:none;stroke:#ff0000;stroke-width:0.89999998;stroke-linecap:butt;stroke-linejoin:miter;stroke-miterlimit:2.61299992;stroke-dasharray:none;stroke-opacity:1"
         inkscape:connector-curvature="0" />
      <path
         id="path6597"
         d="m 1006.137,-945.66877 12.5099,-228.51563 -14.4923,-0.791 -23.93557,437.23633 14.4922,0.7911 10.74707,-196.3672"
         style="fill:none;stroke:#000000;stroke-width:0.89999998;stroke-linecap:butt;stroke-linejoin:miter;stroke-miterlimit:2.61299992;stroke-dasharray:none;stroke-opacity:1"
         inkscape:connector-curvature="0" />
      <path
         id="path6599"
         d="m 939.81383,-33.017351 18.1396,0.9961"
         style="fill:none;stroke:#000000;stroke-width:0.89999998;stroke-linecap:butt;stroke-linejoin:miter;stroke-miterlimit:2.61299992;stroke-dasharray:none;stroke-opacity:1"
         inkscape:connector-curvature="0" />
      <path
         id="path6601"
         d="m 888.61753,-86.738051 -3.1933,-269.404319 19.2529,-0.2295 3.1934,269.335919"
         style="fill:none;stroke:#000000;stroke-width:0.89999998;stroke-linecap:butt;stroke-linejoin:miter;stroke-miterlimit:2.61299992;stroke-dasharray:none;stroke-opacity:1"
         inkscape:connector-curvature="0" />
      <path
         id="path6603"
         d="m 825.86843,-282.75857 -35.9961,0.4297 -0.8544,-71.9971 35.996,-0.4248 m 0,0 0.7422,62.666"
         style="fill:none;stroke:#000000;stroke-width:0.89999998;stroke-linecap:butt;stroke-linejoin:miter;stroke-miterlimit:2.61299992;stroke-dasharray:none;stroke-opacity:1"
         inkscape:connector-curvature="0" />
      <path
         id="path6605"
         d="m 1094.2279,-284.65797 6.9775,-57.2754 -35.7373,-4.3555 -8.706,71.4746 35.7324,4.3506"
         style="fill:none;stroke:#000000;stroke-width:0.89999998;stroke-linecap:butt;stroke-linejoin:miter;stroke-miterlimit:2.61299992;stroke-dasharray:none;stroke-opacity:1"
         inkscape:connector-curvature="0" />
    </g>
    <g
       id="g10646"
       transform="translate(-65.714287,8.5714275)">
      <path
         id="path6563"
         d="m 344.20353,-563.23707 0,-1068.94043 m -87.2412,2632.207 87.2412,-1556.23537 m -137.4365,1561.91897 49.8779,0 m -137.4414,-1561.91897 87.2851,1557.00197 m -87.2851,-2632.9736 0,1071.98723 m 218.0078,-1071.98723 -212.6074,0"
         style="fill:none;stroke:#000000;stroke-width:0.89999998;stroke-linecap:butt;stroke-linejoin:miter;stroke-miterlimit:2.61299992;stroke-dasharray:none;stroke-opacity:1"
         inkscape:connector-curvature="0" />
      <path
         id="path6565"
         d="m 137.20643,-1632.1775 -0.024,1075.99113 85.4394,1560.80577"
         style="fill:none;stroke:#ff0000;stroke-width:0.89999998;stroke-linecap:butt;stroke-linejoin:miter;stroke-miterlimit:2.61299992;stroke-dasharray:none;stroke-opacity:1"
         inkscape:connector-curvature="0" />
      <path
         id="path6567"
         d="m 326.20543,-1632.1775 0.019,1075.99113 -85.4394,1560.80577"
         style="fill:none;stroke:#ff0000;stroke-width:0.89999998;stroke-linecap:butt;stroke-linejoin:miter;stroke-miterlimit:2.61299992;stroke-dasharray:none;stroke-opacity:1"
         inkscape:connector-curvature="0" />
      <path
         id="path6569"
         d="m 158.13903,-1587.1775 152.998,0"
         style="fill:none;stroke:#000000;stroke-width:0.89999998;stroke-linecap:butt;stroke-linejoin:miter;stroke-miterlimit:2.61299992;stroke-dasharray:none;stroke-opacity:1"
         inkscape:connector-curvature="0" />
      <path
         id="path6571"
         d="m 158.13903,-1272.1775 152.998,0"
         style="fill:none;stroke:#000000;stroke-width:0.89999998;stroke-linecap:butt;stroke-linejoin:miter;stroke-miterlimit:2.61299992;stroke-dasharray:none;stroke-opacity:1"
         inkscape:connector-curvature="0" />
      <path
         id="path6715"
         d="m 222.62143,954.86845 0,-77.1143 18.1641,0"
         style="fill:none;stroke:#000000;stroke-width:0.89999998;stroke-linecap:butt;stroke-linejoin:miter;stroke-miterlimit:2.61299992;stroke-dasharray:none;stroke-opacity:1"
         inkscape:connector-curvature="0" />
      <path
         id="path6717"
         d="m 240.78543,877.75415 0,77.1143"
         style="fill:none;stroke:#000000;stroke-width:0.89999998;stroke-linecap:butt;stroke-linejoin:miter;stroke-miterlimit:2.61299992;stroke-dasharray:none;stroke-opacity:1"
         inkscape:connector-curvature="0" />
    </g>
    <g
       id="g10593"
       transform="translate(32.324883,-8.0812209)">
      <path
         id="path6667"
         d="m 1503.9056,-572.12867 214.9121,0"
         style="fill:none;stroke:#000000;stroke-width:0.89999998;stroke-linecap:butt;stroke-linejoin:miter;stroke-miterlimit:2.61299992;stroke-dasharray:none;stroke-opacity:1"
         inkscape:connector-curvature="0" />
      <path
         id="path6669"
         d="m 1498.5052,-572.46077 -0.1905,-676.33293"
         style="fill:none;stroke:#000000;stroke-width:0.89999998;stroke-linecap:butt;stroke-linejoin:miter;stroke-miterlimit:2.61299992;stroke-dasharray:none;stroke-opacity:1"
         inkscape:connector-curvature="0" />
      <path
         id="path6671"
         d="m 1723.3147,-572.46077 -0.1855,-676.33293"
         style="fill:none;stroke:#000000;stroke-width:0.89999998;stroke-linecap:butt;stroke-linejoin:miter;stroke-miterlimit:2.61299992;stroke-dasharray:none;stroke-opacity:1"
         inkscape:connector-curvature="0" />
      <path
         id="path6673"
         d="m 1499.6477,-759.24787 223.6182,0.083"
         style="fill:none;stroke:#ff0000;stroke-width:0.89999998;stroke-linecap:butt;stroke-linejoin:miter;stroke-miterlimit:2.61299992;stroke-dasharray:none;stroke-opacity:1"
         inkscape:connector-curvature="0" />
      <path
         id="path6675"
         d="m 1516.2249,-1248.7987 188.9991,0.083"
         style="fill:none;stroke:#ff0000;stroke-width:0.89999998;stroke-linecap:butt;stroke-linejoin:miter;stroke-miterlimit:2.61299992;stroke-dasharray:none;stroke-opacity:1"
         inkscape:connector-curvature="0" />
      <path
         id="path6677"
         d="m 1705.2239,-1392.4217 0,143.6231 m -184.0771,-143.6231 179.1552,0 m -184.0771,143.6231 0,-143.6231"
         style="fill:none;stroke:#000000;stroke-width:0.89999998;stroke-linecap:butt;stroke-linejoin:miter;stroke-miterlimit:2.61299992;stroke-dasharray:none;stroke-opacity:1"
         inkscape:connector-curvature="0" />
      <path
         id="path6679"
         d="m 1516.2249,-1275.8103 188.9991,0.083"
         style="fill:none;stroke:#ff0000;stroke-width:0.89999998;stroke-linecap:butt;stroke-linejoin:miter;stroke-miterlimit:2.61299992;stroke-dasharray:none;stroke-opacity:1"
         inkscape:connector-curvature="0" />
      <path
         id="path6681"
         d="m 1516.2249,-1248.7986 -14.4189,0"
         style="fill:none;stroke:#000000;stroke-width:0.89999998;stroke-linecap:butt;stroke-linejoin:miter;stroke-miterlimit:2.61299992;stroke-dasharray:none;stroke-opacity:1"
         inkscape:connector-curvature="0" />
      <path
         id="path6683"
         d="m 1705.2239,-1248.7987 14.4141,0"
         style="fill:none;stroke:#000000;stroke-width:0.89999998;stroke-linecap:butt;stroke-linejoin:miter;stroke-miterlimit:2.61299992;stroke-dasharray:none;stroke-opacity:1"
         inkscape:connector-curvature="0" />
      <path
         id="path6685"
         d="m 1554.4427,-1060.1317 c 0.01,-19.8828 7.5341,-33.2861 18.0175,-35.9911"
         style="fill:none;stroke:#191919;stroke-width:0.63749999;stroke-linecap:butt;stroke-linejoin:bevel;stroke-miterlimit:2.61299992;stroke-opacity:1"
         inkscape:connector-curvature="0" />
      <path
         id="path6687"
         d="m 1590.473,-1132.114 c 0,19.8828 -7.5293,32.9248 -18.0127,35.9912"
         style="fill:none;stroke:#191919;stroke-width:0.63749999;stroke-linecap:butt;stroke-linejoin:bevel;stroke-miterlimit:2.61299992;stroke-opacity:1"
         inkscape:connector-curvature="0" />
      <path
         id="path6689"
         d="m 1666.9427,-1060.0828 c 0.01,-19.8829 -7.5,-33.2959 -17.9834,-36.0107"
         style="fill:none;stroke:#191919;stroke-width:0.63749999;stroke-linecap:butt;stroke-linejoin:bevel;stroke-miterlimit:2.61299992;stroke-opacity:1"
         inkscape:connector-curvature="0" />
      <path
         id="path6691"
         d="m 1630.9759,-1132.0994 c -0.01,19.8828 7.5,32.9345 17.9834,36.0058"
         style="fill:none;stroke:#191919;stroke-width:0.63749999;stroke-linecap:butt;stroke-linejoin:bevel;stroke-miterlimit:2.61299992;stroke-opacity:1"
         inkscape:connector-curvature="0" />
      <path
         id="path6693"
         d="m 1590.473,-1132.114 40.5029,0.015"
         style="fill:none;stroke:#eb1938;stroke-width:0.63749999;stroke-linecap:butt;stroke-linejoin:bevel;stroke-miterlimit:2.61299992;stroke-opacity:1"
         inkscape:connector-curvature="0" />
      <path
         id="path6695"
         d="m 1666.9378,-1042.1336 c 0,2.5 -2.0508,4.5507 -4.5557,4.5459 l -103.3984,-0.039 c -2.5,0 -4.5508,-2.0508 -4.5459,-4.5557"
         style="fill:none;stroke:#191919;stroke-width:0.63749999;stroke-linecap:butt;stroke-linejoin:bevel;stroke-miterlimit:2.61299992;stroke-opacity:1"
         inkscape:connector-curvature="0" />
      <path
         id="path6697"
         d="m 1666.9427,-1060.0828 0,17.9492"
         style="fill:none;stroke:#191919;stroke-width:0.63749999;stroke-linecap:butt;stroke-linejoin:bevel;stroke-miterlimit:2.61299992;stroke-opacity:1"
         inkscape:connector-curvature="0" />
      <path
         id="path6699"
         d="m 1554.4427,-1060.1317 0,17.9492"
         style="fill:none;stroke:#191919;stroke-width:0.63749999;stroke-linecap:butt;stroke-linejoin:bevel;stroke-miterlimit:2.61299992;stroke-opacity:1"
         inkscape:connector-curvature="0" />
      <path
         id="path6703"
         d="m 1558.9739,-1268.1052 c 0,-2.4854 2.0166,-4.502 4.502,-4.502 2.4853,0 4.497,2.0166 4.497,4.502 0,2.4853 -2.0117,4.497 -4.497,4.497 -2.4854,0 -4.502,-2.0117 -4.502,-4.497 z m 0,0"
         style="fill:none;stroke:#000000;stroke-width:0.89999998;stroke-linecap:butt;stroke-linejoin:miter;stroke-miterlimit:2.61299992;stroke-dasharray:none;stroke-opacity:1"
         inkscape:connector-curvature="0" />
      <path
         id="path6705"
         d="m 1653.4759,-1268.1052 c 0,-2.4854 2.0118,-4.502 4.4971,-4.502 2.4854,0 4.502,2.0166 4.502,4.502 0,2.4853 -2.0166,4.497 -4.502,4.497 -2.4853,0 -4.4971,-2.0117 -4.4971,-4.497 z m 0,0"
         style="fill:none;stroke:#000000;stroke-width:0.89999998;stroke-linecap:butt;stroke-linejoin:miter;stroke-miterlimit:2.61299992;stroke-dasharray:none;stroke-opacity:1"
         inkscape:connector-curvature="0" />
      <path
         id="path6723"
         d="m 1563.1713,-1266.0849 0,-85.8204"
         style="fill:none;stroke:#ff0000;stroke-width:0.89999998;stroke-linecap:butt;stroke-linejoin:miter;stroke-miterlimit:2.61299992;stroke-dasharray:none;stroke-opacity:1"
         inkscape:connector-curvature="0" />
      <path
         id="path6725"
         d="m 1657.973,-1268.1052 0,-85.8204"
         style="fill:none;stroke:#ff0000;stroke-width:0.89999998;stroke-linecap:butt;stroke-linejoin:miter;stroke-miterlimit:2.61299992;stroke-dasharray:none;stroke-opacity:1"
         inkscape:connector-curvature="0" />
    </g>
    <g
       id="g10655">
      <path
         id="path6607"
         d="m 1630.429,46.621349 c -3.5156,343.872001 -39.1797,639.213801 -93.7305,932.285201 l -4.6582,23.70105 m 68.208,-1413.31537 c 4.9268,141.8066 30.6006,343.745119 30.2149,453.999019 M 1332.2991,-432.17757 c 3.7598,-34.1504 23.5254,-91.1816 55.6641,-89.2529 l 84.1113,3.9209 c 23.9697,2.2754 83.9795,49.8877 118.0811,79.4629 4.6826,5.6982 9.4775,9.8242 9.9023,22.1533 M 1254.7405,38.579349 1330.4974,-421.22537 M 1118.6908,171.98755 1252.7093,50.898649"
         style="fill:none;stroke:#000000;stroke-width:0.9;stroke-linecap:butt;stroke-linejoin:miter;stroke-miterlimit:2.61299992;stroke-opacity:1;stroke-dasharray:none"
         inkscape:connector-curvature="0" />
      <path
         id="path6609"
         d="m 1114.145,955.85475 422.6171,22.7051"
         style="fill:none;stroke:#ff0000;stroke-width:0.9;stroke-linecap:butt;stroke-linejoin:miter;stroke-miterlimit:2.61299992;stroke-opacity:1;stroke-dasharray:none"
         inkscape:connector-curvature="0" />
      <path
         id="path6611"
         d="m 1114.145,955.81575 0,-779.7217 -15.3125,0 0.044,779.7314 15.2686,-0.01"
         style="fill:none;stroke:#ff0000;stroke-width:0.9;stroke-linecap:butt;stroke-linejoin:miter;stroke-miterlimit:2.61299992;stroke-opacity:1;stroke-dasharray:none"
         inkscape:connector-curvature="0" />
      <path
         id="path6613"
         d="m 909.83333,955.81575 0,-779.7218 -15.3174,0 0,779.7218"
         style="fill:none;stroke:#ff0000;stroke-width:0.9;stroke-linecap:butt;stroke-linejoin:miter;stroke-miterlimit:2.61299992;stroke-opacity:1;stroke-dasharray:none"
         inkscape:connector-curvature="0" />
      <path
         id="path6615"
         d="m 1114.145,176.09395 -214.00397,0"
         style="fill:none;stroke:#000000;stroke-width:0.9;stroke-linecap:butt;stroke-linejoin:miter;stroke-miterlimit:2.61299992;stroke-opacity:1;stroke-dasharray:none"
         inkscape:connector-curvature="0" />
      <path
         id="path6617"
         d="m 755.95143,50.898649 132.6709,119.868201 m -211.2451,-596.78712 76.1182,462.011719 M 408.60283,-415.89337 c 0.4297,-12.3291 5.2246,-16.4551 9.9023,-22.1533 34.1016,-29.5752 94.1114,-77.1826 118.086,-79.4629 l 84.1064,-3.9209 c 32.1436,-1.9287 51.9043,55.1025 55.6641,89.2529 M 378.19753,43.291249 c -0.3857,-110.2588 25.2393,-310.859419 30.166,-452.666019 m 63.5987,1388.28132 c -54.5557,-292.9688 -90.1123,-593.7892 -93.7305,-932.080201"
         style="fill:none;stroke:#000000;stroke-width:0.9;stroke-linecap:butt;stroke-linejoin:miter;stroke-miterlimit:2.61299992;stroke-opacity:1;stroke-dasharray:none"
         inkscape:connector-curvature="0" />
      <path
         id="path6619"
         d="m 894.51593,955.85475 -424.1455,22.7881"
         style="fill:none;stroke:#ff0000;stroke-width:0.9;stroke-linecap:butt;stroke-linejoin:miter;stroke-miterlimit:2.61299992;stroke-opacity:1;stroke-dasharray:none"
         inkscape:connector-curvature="0" />
      <path
         id="path6621"
         d="m 894.51593,955.85475 219.62907,-0.039"
         style="fill:none;stroke:#ff0000;stroke-width:0.9;stroke-linecap:butt;stroke-linejoin:miter;stroke-miterlimit:2.61299992;stroke-opacity:1;stroke-dasharray:none"
         inkscape:connector-curvature="0" />
      <path
         id="path6623"
         d="m 948.08043,557.00215 0,-196.9433 c 0,-30.127 24.6484,-54.7754 54.77537,-54.7754 l 2.9493,0 c 30.1269,0 54.7754,24.6484 54.7754,54.7754 l 0,196.0058 m 0,15 0,199.8975 c 0,30.122 -24.6485,54.7754 -54.7754,54.7754 l -2.9493,0 c -30.12697,0 -54.77537,-24.6534 -54.77537,-54.7754 l 0,-197.085"
         style="fill:none;stroke:#000000;stroke-width:0.9;stroke-linecap:butt;stroke-linejoin:miter;stroke-miterlimit:2.61299992;stroke-opacity:1;stroke-dasharray:none"
         inkscape:connector-curvature="0" />
      <path
         id="path6625"
         d="m 1114.145,980.15655 411.8456,22.12885"
         style="fill:none;stroke:#000000;stroke-width:0.9;stroke-linecap:butt;stroke-linejoin:miter;stroke-miterlimit:2.61299992;stroke-opacity:1;stroke-dasharray:none"
         inkscape:connector-curvature="0" />
      <path
         id="path6627"
         d="m 888.13893,980.49825 -404.8046,21.74805"
         style="fill:none;stroke:#000000;stroke-width:0.9;stroke-linecap:butt;stroke-linejoin:miter;stroke-miterlimit:2.61299992;stroke-opacity:1;stroke-dasharray:none"
         inkscape:connector-curvature="0" />
      <path
         id="path6629"
         d="m 901.82553,980.15165 212.31947,-0.034"
         style="fill:none;stroke:#000000;stroke-width:0.9;stroke-linecap:butt;stroke-linejoin:miter;stroke-miterlimit:2.61299992;stroke-opacity:1;stroke-dasharray:none"
         inkscape:connector-curvature="0" />
      <path
         id="path6631"
         d="m 471.89873,978.55975 4.0088,24.08685"
         style="fill:none;stroke:#000000;stroke-width:0.9;stroke-linecap:butt;stroke-linejoin:miter;stroke-miterlimit:2.61299992;stroke-opacity:1;stroke-dasharray:none"
         inkscape:connector-curvature="0" />
      <path
         id="path6633"
         d="m 927.83133,242.24635 153.00297,0"
         style="fill:none;stroke:#000000;stroke-width:0.9;stroke-linecap:butt;stroke-linejoin:miter;stroke-miterlimit:2.61299992;stroke-opacity:1;stroke-dasharray:none"
         inkscape:connector-curvature="0" />
      <path
         id="path6635"
         d="m 1293.4417,478.59395 c 0,-1.2353 -1.0059,-2.2412 -2.2412,-2.2412 -1.2354,0 -2.2412,1.0059 -2.2412,2.2412 0,1.2354 1.0058,2.2412 2.2412,2.2412 1.2353,0 2.2412,-1.0058 2.2412,-2.2412 z m 0,0"
         style="fill:none;stroke:#000000;stroke-width:0.9;stroke-linecap:butt;stroke-linejoin:miter;stroke-miterlimit:2.61299992;stroke-opacity:1;stroke-dasharray:none"
         inkscape:connector-curvature="0" />
      <path
         id="path6639"
         d="m 894.51593,955.81575 0,58.02725"
         style="fill:none;stroke:#ff0000;stroke-width:0.9;stroke-linecap:butt;stroke-linejoin:miter;stroke-miterlimit:2.61299992;stroke-opacity:1;stroke-dasharray:none"
         inkscape:connector-curvature="0" />
      <path
         id="path6701"
         d="m 715.22393,478.59395 c 0,-1.2353 1.001,-2.2412 2.2363,-2.2412 1.2402,0 2.2412,1.0059 2.2412,2.2412 0,1.2354 -1.001,2.2412 -2.2412,2.2412 -1.2353,0 -2.2363,-1.0058 -2.2363,-2.2412 z m 0,0"
         style="fill:none;stroke:#000000;stroke-width:0.9;stroke-linecap:butt;stroke-linejoin:miter;stroke-miterlimit:2.61299992;stroke-opacity:1;stroke-dasharray:none"
         inkscape:connector-curvature="0" />
      <path
         id="path6707"
         d="m 1269.4671,59.741449 80.5517,-488.920919 -17.9345,-2.9981"
         style="fill:none;stroke:#ff0000;stroke-width:0.9;stroke-linecap:butt;stroke-linejoin:miter;stroke-miterlimit:2.61299992;stroke-opacity:1;stroke-dasharray:none"
         inkscape:connector-curvature="0" />
      <path
         id="path6709"
         d="M 1114.145,200.30785 1269.4672,59.970949"
         style="fill:none;stroke:#ff0000;stroke-width:0.9;stroke-linecap:butt;stroke-linejoin:miter;stroke-miterlimit:2.61299992;stroke-opacity:1;stroke-dasharray:none"
         inkscape:connector-curvature="0" />
      <path
         id="path6711"
         d="m 739.19363,59.741449 -80.5517,-488.920919 17.9345,-2.9981"
         style="fill:none;stroke:#ff0000;stroke-width:0.9;stroke-linecap:butt;stroke-linejoin:miter;stroke-miterlimit:2.61299992;stroke-opacity:1;stroke-dasharray:none"
         inkscape:connector-curvature="0" />
      <path
         id="path6713"
         d="M 894.51593,200.30785 739.19373,59.970949"
         style="fill:none;stroke:#ff0000;stroke-width:0.9;stroke-linecap:butt;stroke-linejoin:miter;stroke-miterlimit:2.61299992;stroke-opacity:1;stroke-dasharray:none"
         inkscape:connector-curvature="0" />
      <path
         id="path6719"
         d="m 927.83133,239.54615 153.00297,0"
         style="fill:none;stroke:#000000;stroke-width:0.9;stroke-linecap:butt;stroke-linejoin:miter;stroke-miterlimit:2.61299992;stroke-opacity:1;stroke-dasharray:none"
         inkscape:connector-curvature="0" />
      <path
         id="path6721"
         d="m 894.51593,200.30785 219.62907,0"
         style="fill:none;stroke:#ff0000;stroke-width:0.9;stroke-linecap:butt;stroke-linejoin:miter;stroke-miterlimit:2.61299992;stroke-opacity:1;stroke-dasharray:none"
         inkscape:connector-curvature="0" />
      <path
         id="path6727"
         d="m 876.95243,955.49835 c 1.2354,0 2.2461,-1.0108 2.2461,-2.251 0,-1.2402 -1.0107,-2.251 -2.2461,-2.251 -1.2402,0 -2.251,1.0108 -2.251,2.251 0,1.2402 1.0108,2.251 2.251,2.251 z m 0,0"
         style="fill:none;stroke:#000000;stroke-width:0.9;stroke-linecap:butt;stroke-linejoin:miter;stroke-miterlimit:2.61299992;stroke-opacity:1;stroke-dasharray:none"
         inkscape:connector-curvature="0" />
      <path
         id="path6729"
         d="m 872.45053,209.77555 c 1.2403,0 2.251,-1.0107 2.251,-2.2509 0,-1.2403 -1.0107,-2.251 -2.251,-2.251 -1.2402,0 -2.2509,1.0107 -2.2509,2.251 0,1.2402 1.0107,2.2509 2.2509,2.2509 z m 0,0"
         style="fill:none;stroke:#000000;stroke-width:0.9;stroke-linecap:butt;stroke-linejoin:miter;stroke-miterlimit:2.61299992;stroke-opacity:1;stroke-dasharray:none"
         inkscape:connector-curvature="0" />
      <path
         id="path6731"
         d="m 1131.7669,955.49835 c 1.2353,0 2.2461,-1.0108 2.2461,-2.251 0,-1.2402 -1.0108,-2.251 -2.2461,-2.251 -1.2403,0 -2.251,1.0108 -2.251,2.251 0,1.2402 1.0107,2.251 2.251,2.251 z m 0,0"
         style="fill:none;stroke:#000000;stroke-width:0.9;stroke-linecap:butt;stroke-linejoin:miter;stroke-miterlimit:2.61299992;stroke-opacity:1;stroke-dasharray:none"
         inkscape:connector-curvature="0" />
      <path
         id="path6733"
         d="m 1136.2639,209.77555 c 1.2403,0 2.251,-1.0107 2.251,-2.2509 0,-1.2403 -1.0107,-2.251 -2.251,-2.251 -1.2353,0 -2.251,1.0107 -2.251,2.251 0,1.2402 1.0157,2.2509 2.251,2.2509 z m 0,0"
         style="fill:none;stroke:#000000;stroke-width:0.9;stroke-linecap:butt;stroke-linejoin:miter;stroke-miterlimit:2.61299992;stroke-opacity:1;stroke-dasharray:none"
         inkscape:connector-curvature="0" />
    </g>
    <path
       inkscape:connector-curvature="0"
       style="fill:none;stroke:#000000;stroke-width:0.9;stroke-linecap:butt;stroke-linejoin:miter;stroke-miterlimit:2.61299992;stroke-opacity:1;stroke-dasharray:none"
       d="m 390.32163,-730.58577 0,217.8321 c 0,6.8505 5.6055,12.456 12.4561,12.456 l 26.0449,0 91.8115,-178.5547 0,-116.5917 m -130.3125,27.1582 0,35.8984 m 61.626,-177.8418 -12.5684,0 m 81.2549,111.7871 0,-99.3311 c 0,-6.8457 -5.6103,-12.456 -12.456,-12.456 l -53.5303,0"
       id="path6735" />
    <path
       inkscape:connector-curvature="0"
       style="fill:none;stroke:#000000;stroke-width:0.9;stroke-linecap:butt;stroke-linejoin:miter;stroke-miterlimit:2.61299992;stroke-opacity:1;stroke-dasharray:none"
       d="m 390.32163,-768.28587 49.0576,-141.9434"
       id="path6737" />
  </g>
</svg>
