<?xml version="1.0" encoding="UTF-8" standalone="no"?>
<!-- Created with Inkscape (http://www.inkscape.org/) -->

<svg
   xmlns:dc="http://purl.org/dc/elements/1.1/"
   xmlns:cc="http://creativecommons.org/ns#"
   xmlns:rdf="http://www.w3.org/1999/02/22-rdf-syntax-ns#"
   xmlns:svg="http://www.w3.org/2000/svg"
   xmlns="http://www.w3.org/2000/svg"
   xmlns:sodipodi="http://sodipodi.sourceforge.net/DTD/sodipodi-0.dtd"
   xmlns:inkscape="http://www.inkscape.org/namespaces/inkscape"
   width="20in"
   height="30in"
   viewBox="0 0 1800 2700"
   id="svg2"
   version="1.1"
   inkscape:version="0.91 r13725"
   sodipodi:docname="FT_Storch_Sheet2.svg">
  <defs
     id="defs4" />
  <sodipodi:namedview
     id="base"
     pagecolor="#ffffff"
     bordercolor="#666666"
     borderopacity="1.0"
     inkscape:pageopacity="0.0"
     inkscape:pageshadow="2"
     inkscape:zoom="0.24748737"
     inkscape:cx="1210.8096"
     inkscape:cy="1159.2248"
     inkscape:document-units="in"
     inkscape:current-layer="layer1"
     showgrid="false"
     units="in"
     inkscape:window-width="1680"
     inkscape:window-height="987"
     inkscape:window-x="1912"
     inkscape:window-y="24"
     inkscape:window-maximized="1" />
  <metadata
     id="metadata7">
    <rdf:RDF>
      <cc:Work
         rdf:about="">
        <dc:format>image/svg+xml</dc:format>
        <dc:type
           rdf:resource="http://purl.org/dc/dcmitype/StillImage" />
        <dc:title />
        <dc:creator>
          <cc:Agent>
            <dc:title>Design by: Josh Bixler    Plans Drafted by: Dan Sponholz</dc:title>
          </cc:Agent>
        </dc:creator>
        <dc:rights>
          <cc:Agent>
            <dc:title />
          </cc:Agent>
        </dc:rights>
        <dc:publisher>
          <cc:Agent>
            <dc:title>Flite Test</dc:title>
          </cc:Agent>
        </dc:publisher>
      </cc:Work>
    </rdf:RDF>
  </metadata>
  <g
     inkscape:label="Layer 1"
     inkscape:groupmode="layer"
     id="layer1"
     transform="translate(0,1647.6378)">
    <g
       id="g15592">
      <path
         id="path6487"
         d="m 902.26628,-1015.3343 0,-465.4395 c 14.7021,-211.9189 847.43652,-99.541 850.10742,0 l 0,1123.69635 -39.4189,8.457 0,1346.64077"
         style="fill:none;stroke:#000000;stroke-width:0.89999998;stroke-linecap:butt;stroke-linejoin:miter;stroke-miterlimit:2.61299992;stroke-dasharray:none;stroke-opacity:1"
         inkscape:connector-curvature="0" />
      <path
         id="path6489"
         d="m 902.26628,998.02512 162.03612,-2.7002 166.9629,0 481.6895,2.7002"
         style="fill:none;stroke:#000000;stroke-width:0.89999998;stroke-linecap:butt;stroke-linejoin:miter;stroke-miterlimit:2.61299992;stroke-dasharray:none;stroke-opacity:1"
         inkscape:connector-curvature="0" />
      <path
         id="path6491"
         d="m 307.1736,874.66572 0,123.8086 595.09278,-0.4492 M 307.2468,9.0846443 l 0,862.8759757 m 0,-1871.35738 0,999.10640426 M 902.26638,-1015.3343 l -595.09278,0"
         style="fill:none;stroke:#000000;stroke-width:0.89999998;stroke-linecap:butt;stroke-linejoin:miter;stroke-miterlimit:2.61299992;stroke-dasharray:none;stroke-opacity:1"
         inkscape:connector-curvature="0" />
      <path
         id="path6493"
         d="m 902.26628,-1015.3343 0,2013.35462"
         style="fill:none;stroke:#ff0000;stroke-width:0.89999998;stroke-linecap:butt;stroke-linejoin:miter;stroke-miterlimit:2.61299992;stroke-dasharray:none;stroke-opacity:1"
         inkscape:connector-curvature="0" />
      <path
         id="path6495"
         d="m 1064.3024,998.02512 0,-2586.82132"
         style="fill:none;stroke:#ff0000;stroke-width:0.89999998;stroke-linecap:butt;stroke-linejoin:miter;stroke-miterlimit:2.61299992;stroke-dasharray:none;stroke-opacity:1"
         inkscape:connector-curvature="0" />
      <path
         id="path6497"
         d="m 1535.8405,702.50262 0,-2274.27252"
         style="fill:none;stroke:#ff0000;stroke-width:0.89999998;stroke-linecap:butt;stroke-linejoin:miter;stroke-miterlimit:2.61299992;stroke-dasharray:none;stroke-opacity:1"
         inkscape:connector-curvature="0" />
      <path
         id="path6499"
         d="m 1535.8405,702.50262 152.4609,0"
         style="fill:none;stroke:#ff0000;stroke-width:0.89999998;stroke-linecap:butt;stroke-linejoin:miter;stroke-miterlimit:2.61299992;stroke-dasharray:none;stroke-opacity:1"
         inkscape:connector-curvature="0" />
      <path
         id="path6501"
         d="m 1652.8376,-1049.5092 -90,0"
         style="fill:none;stroke:#000000;stroke-width:0.89999998;stroke-linecap:butt;stroke-linejoin:miter;stroke-miterlimit:2.61299992;stroke-dasharray:none;stroke-opacity:1"
         inkscape:connector-curvature="0" />
      <path
         id="path6503"
         d="m 1231.2653,998.02512 0,-2599.17482"
         style="fill:none;stroke:#ff0000;stroke-width:0.89999998;stroke-linecap:butt;stroke-linejoin:miter;stroke-miterlimit:2.61299992;stroke-dasharray:none;stroke-opacity:1"
         inkscape:connector-curvature="0" />
      <path
         id="path6507"
         d="m 1652.8376,410.00264 -90,0"
         style="fill:none;stroke:#ff0000;stroke-width:0.89999998;stroke-linecap:butt;stroke-linejoin:miter;stroke-miterlimit:2.61299992;stroke-dasharray:none;stroke-opacity:1"
         inkscape:connector-curvature="0" />
      <path
         id="path6509"
         d="m 246.8757,874.66572 15.2979,0 0,-1887.29992 -15.2979,0 z m 0,0"
         style="fill:none;stroke:#ff0000;stroke-width:0.89999998;stroke-linecap:butt;stroke-linejoin:miter;stroke-miterlimit:2.61299992;stroke-dasharray:none;stroke-opacity:1"
         inkscape:connector-curvature="0" />
      <path
         id="path6511"
         d="m 95.2107,874.66572 15.3027,0 0,-1887.29992 -15.3027,0 z m 0,0"
         style="fill:none;stroke:#ff0000;stroke-width:0.89999998;stroke-linecap:butt;stroke-linejoin:miter;stroke-miterlimit:2.61299992;stroke-dasharray:none;stroke-opacity:1"
         inkscape:connector-curvature="0" />
      <path
         id="path6513"
         d="m 307.1736,-1015.3343 -45,2.7002 -166.9629,0 -45,-2.7002 0,1890.00002 256.9629,0"
         style="fill:none;stroke:#000000;stroke-width:0.89999998;stroke-linecap:butt;stroke-linejoin:miter;stroke-miterlimit:2.61299992;stroke-dasharray:none;stroke-opacity:1"
         inkscape:connector-curvature="0" />
      <path
         id="path6519"
         d="m 712.7888,990.82302 0,-35.2149 c 0,-19.3701 -17.1387,-35.2149 -38.0909,-35.2149 l -26.2988,0 c -20.9473,0 -38.0908,15.8448 -38.0908,35.2149 l 0,35.2149"
         style="fill:none;stroke:#000000;stroke-width:0.89999998;stroke-linecap:butt;stroke-linejoin:miter;stroke-miterlimit:2.61299992;stroke-dasharray:none;stroke-opacity:1"
         inkscape:connector-curvature="0" />
      <path
         id="path6521"
         d="m 622.1736,522.50264 0,-6.0596"
         style="fill:none;stroke:#000000;stroke-width:0.89999998;stroke-linecap:butt;stroke-linejoin:miter;stroke-miterlimit:2.61299992;stroke-dasharray:none;stroke-opacity:1"
         inkscape:connector-curvature="0" />
      <path
         id="path6523"
         d="m 700.9236,522.50264 0,-6.0596"
         style="fill:none;stroke:#000000;stroke-width:0.89999998;stroke-linecap:butt;stroke-linejoin:miter;stroke-miterlimit:2.61299992;stroke-dasharray:none;stroke-opacity:1"
         inkscape:connector-curvature="0" />
      <path
         id="path6525"
         d="m 622.1736,416.06214 0,-6.0595"
         style="fill:none;stroke:#000000;stroke-width:0.89999998;stroke-linecap:butt;stroke-linejoin:miter;stroke-miterlimit:2.61299992;stroke-dasharray:none;stroke-opacity:1"
         inkscape:connector-curvature="0" />
      <path
         id="path6527"
         d="m 700.9236,416.06214 0,-6.0595"
         style="fill:none;stroke:#000000;stroke-width:0.89999998;stroke-linecap:butt;stroke-linejoin:miter;stroke-miterlimit:2.61299992;stroke-dasharray:none;stroke-opacity:1"
         inkscape:connector-curvature="0" />
      <path
         id="path6539"
         d="m 952.89128,-1236.5794 -3.8525,0"
         style="fill:none;stroke:#000000;stroke-width:0.89999998;stroke-linecap:butt;stroke-linejoin:miter;stroke-miterlimit:2.61299992;stroke-dasharray:none;stroke-opacity:1"
         inkscape:connector-curvature="0" />
      <path
         id="path6541"
         d="m 922.99388,-1236.5794 -3.8525,0"
         style="fill:none;stroke:#000000;stroke-width:0.89999998;stroke-linecap:butt;stroke-linejoin:miter;stroke-miterlimit:2.61299992;stroke-dasharray:none;stroke-opacity:1"
         inkscape:connector-curvature="0" />
      <path
         id="path6543"
         d="m 952.89128,-325.32946 -3.8525,0"
         style="fill:none;stroke:#000000;stroke-width:0.89999998;stroke-linecap:butt;stroke-linejoin:miter;stroke-miterlimit:2.61299992;stroke-dasharray:none;stroke-opacity:1"
         inkscape:connector-curvature="0" />
      <path
         id="path6545"
         d="m 922.99388,-325.32946 -3.8525,0"
         style="fill:none;stroke:#000000;stroke-width:0.89999998;stroke-linecap:butt;stroke-linejoin:miter;stroke-miterlimit:2.61299992;stroke-dasharray:none;stroke-opacity:1"
         inkscape:connector-curvature="0" />
      <path
         id="path6547"
         d="m 952.89128,585.92054 -3.8525,0"
         style="fill:none;stroke:#000000;stroke-width:0.89999998;stroke-linecap:butt;stroke-linejoin:miter;stroke-miterlimit:2.61299992;stroke-dasharray:none;stroke-opacity:1"
         inkscape:connector-curvature="0" />
      <path
         id="path6549"
         d="m 922.99388,585.92054 -3.8525,0"
         style="fill:none;stroke:#000000;stroke-width:0.89999998;stroke-linecap:butt;stroke-linejoin:miter;stroke-miterlimit:2.61299992;stroke-dasharray:none;stroke-opacity:1"
         inkscape:connector-curvature="0" />
    </g>
    <g
       id="g15582">
      <path
         id="path6781"
         d="m 777.218,-1485.141 c 0,23.2959 -18.8916,42.1875 -42.1875,42.1875 -0.6494,0 -1.2988,-0.015 -1.9385,-0.044 m -0.5517,-84.2578 c 0.8203,-0.049 1.6504,-0.073 2.4902,-0.073 23.2959,0 42.1826,18.711 42.1826,42.0117 m -84.3701,-0.059 c 0,-22.4658 17.2656,-40.5761 39.4043,-41.8652 m 0.5469,84.2285 c -4.6485,-0.2099 -8.8086,-1.1572 -12.9444,-2.7539 -15.8007,-6.0986 -27.0068,-21.4258 -27.0068,-39.375"
         style="fill:none;stroke:#000000;stroke-width:0.9;stroke-linecap:butt;stroke-linejoin:miter;stroke-miterlimit:2.61299992;stroke-opacity:1;stroke-dasharray:none"
         inkscape:connector-curvature="0" />
      <path
         id="path6783"
         d="m 870.02071,-1486.811 c -0.8935,-73.789 -60.9912,-133.33 -134.99511,-133.33 -2.0752,0 -4.1406,0.044 -6.1963,0.1416 m -0.6445,269.6875 c 2.2656,0.1122 4.5459,0.1709 6.8408,0.1709 74.56061,0 135.00001,-59.8829 135.00001,-134.4385 m -270.00001,0.1855 c 0,71.8848 55.2588,129.8389 126.1084,133.9649 m 0.6397,-269.4727 c -14.4336,0.7715 -27.4072,3.7793 -40.3223,8.7647 -50.0293,19.2968 -85.6689,67.5341 -86.4111,124.1894"
         style="fill:none;stroke:#000000;stroke-width:0.9;stroke-linecap:butt;stroke-linejoin:miter;stroke-miterlimit:2.61299992;stroke-opacity:1;stroke-dasharray:none"
         inkscape:connector-curvature="0" />
      <path
         id="path6785"
         d="m 550.8508,-1486.811 c -0.8887,-73.789 -60.9864,-133.33 -134.9903,-133.33 -2.0752,0 -4.1455,0.044 -6.2011,0.1416 m -0.6397,269.6875 c 2.2656,0.1122 4.5459,0.1709 6.8408,0.1709 74.5606,0 135,-59.8829 135,-134.4385 m -270,0.1855 c 0,71.8848 55.2588,129.8389 126.1084,133.9649 m 0.6397,-269.4727 c -14.4336,0.7715 -27.4072,3.7793 -40.3223,8.7647 -50.0293,19.2968 -85.6738,67.5341 -86.416,124.1894"
         style="fill:none;stroke:#000000;stroke-width:0.9;stroke-linecap:butt;stroke-linejoin:miter;stroke-miterlimit:2.61299992;stroke-opacity:1;stroke-dasharray:none"
         inkscape:connector-curvature="0" />
      <path
         id="path6787"
         d="m 411.3635,-1485.141 c 0,-2.4853 2.0117,-4.5019 4.497,-4.5019 2.4854,0 4.502,2.0166 4.502,4.5019 0,2.4854 -2.0166,4.4971 -4.502,4.4971 -2.4853,0 -4.497,-2.0117 -4.497,-4.4971 z m 0,0"
         style="fill:none;stroke:#000000;stroke-width:0.9;stroke-linecap:butt;stroke-linejoin:miter;stroke-miterlimit:2.61299992;stroke-opacity:1;stroke-dasharray:none"
         inkscape:connector-curvature="0" />
      <path
         id="path6789"
         d="m 870.4658,-1179.7246 c -0.8936,-73.789 -60.9912,-133.33 -134.9902,-133.33 -2.0801,0 -4.1456,0.044 -6.2012,0.1416 m -0.6397,269.6875 c 2.2608,0.1122 4.5459,0.1709 6.8409,0.1709 74.5556,0 135,-59.8829 135,-134.4385 m -270,0.1855 c 0,71.8848 55.2539,129.8389 126.1083,133.9649 m 0.6397,-269.4727 c -14.4336,0.7715 -27.4121,3.7793 -40.3271,8.7647 -50.0245,19.2968 -85.669,67.5341 -86.4112,124.1894"
         style="fill:none;stroke:#000000;stroke-width:0.9;stroke-linecap:butt;stroke-linejoin:miter;stroke-miterlimit:2.61299992;stroke-opacity:1;stroke-dasharray:none"
         inkscape:connector-curvature="0" />
      <path
         id="path6791"
         d="m 730.9736,-1178.0546 c 0,-2.4853 2.0166,-4.5019 4.502,-4.5019 2.4853,0 4.497,2.0166 4.497,4.5019 0,2.4854 -2.0117,4.4971 -4.497,4.4971 -2.4854,0 -4.502,-2.0117 -4.502,-4.4971 z m 0,0"
         style="fill:none;stroke:#000000;stroke-width:0.9;stroke-linecap:butt;stroke-linejoin:miter;stroke-miterlimit:2.61299992;stroke-opacity:1;stroke-dasharray:none"
         inkscape:connector-curvature="0" />
      <path
         id="path6793"
         d="m 529.8457,-1184.2216 c -0.8936,-73.7891 -60.9864,-133.335 -134.9903,-133.335 -2.0752,0 -4.1455,0.049 -6.2012,0.1416 m -0.6396,269.6924 c 2.2656,0.1122 4.5459,0.166 6.8408,0.166 74.5606,0 135,-59.8779 135,-134.4385 m -270,0.1856 c 0,71.8847 55.2588,129.8437 126.1084,133.9648 m 0.6397,-269.4726 c -14.4336,0.7714 -27.4073,3.7841 -40.3223,8.7646 -50.0293,19.2969 -85.6738,67.5342 -86.416,124.1943"
         style="fill:none;stroke:#000000;stroke-width:0.9;stroke-linecap:butt;stroke-linejoin:miter;stroke-miterlimit:2.61299992;stroke-opacity:1;stroke-dasharray:none"
         inkscape:connector-curvature="0" />
      <path
         id="path6795"
         d="m 390.3535,-1182.5565 c 0,-2.4854 2.0166,-4.4971 4.5019,-4.4971 2.4854,0 4.502,2.0117 4.502,4.4971 0,2.4853 -2.0166,4.5019 -4.502,4.5019 -2.4853,0 -4.5019,-2.0166 -4.5019,-4.5019 z m 0,0"
         style="fill:none;stroke:#000000;stroke-width:0.9;stroke-linecap:butt;stroke-linejoin:miter;stroke-miterlimit:2.61299992;stroke-opacity:1;stroke-dasharray:none"
         inkscape:connector-curvature="0" />
    </g>
  </g>
</svg>
