<?xml version="1.0" encoding="UTF-8" standalone="no"?>
<!-- Created with Inkscape (http://www.inkscape.org/) -->

<svg
   xmlns:dc="http://purl.org/dc/elements/1.1/"
   xmlns:cc="http://creativecommons.org/ns#"
   xmlns:rdf="http://www.w3.org/1999/02/22-rdf-syntax-ns#"
   xmlns:svg="http://www.w3.org/2000/svg"
   xmlns="http://www.w3.org/2000/svg"
   xmlns:sodipodi="http://sodipodi.sourceforge.net/DTD/sodipodi-0.dtd"
   xmlns:inkscape="http://www.inkscape.org/namespaces/inkscape"
   width="594mm"
   height="841mm"
   viewBox="0 0 2104.7244 2979.9212"
   id="svg26334"
   version="1.1"
   inkscape:version="0.91 r13725"
   sodipodi:docname="Spitfire S2 Complete.svg">
  <sodipodi:namedview
     id="base"
     pagecolor="#ffffff"
     bordercolor="#666666"
     borderopacity="1.0"
     inkscape:pageopacity="0.0"
     inkscape:pageshadow="2"
     inkscape:zoom="0.28490686"
     inkscape:cx="204.80231"
     inkscape:cy="969.81548"
     inkscape:document-units="mm"
     inkscape:current-layer="layer1"
     showgrid="false"
     inkscape:window-width="1920"
     inkscape:window-height="1018"
     inkscape:window-x="-8"
     inkscape:window-y="-8"
     inkscape:window-maximized="1" />
  <defs
     id="defs26336">
    <clipPath
       id="clipPath26944"
       clipPathUnits="userSpaceOnUse">
      <path
         inkscape:connector-curvature="0"
         id="path26946"
         d="m 0,2063.598 2475.249,0 L 2475.249,0 0,0 0,2063.598 Z" />
    </clipPath>
    <clipPath
       id="clipPath27114"
       clipPathUnits="userSpaceOnUse">
      <path
         inkscape:connector-curvature="0"
         id="path27116"
         d="m 0,2063.598 2475.249,0 L 2475.249,0 0,0 0,2063.598 Z" />
    </clipPath>
    <clipPath
       id="clipPath27158"
       clipPathUnits="userSpaceOnUse">
      <path
         inkscape:connector-curvature="0"
         id="path27160"
         d="m 0,2063.598 2475.249,0 L 2475.249,0 0,0 0,2063.598 Z" />
    </clipPath>
    <clipPath
       id="clipPath27174"
       clipPathUnits="userSpaceOnUse">
      <path
         inkscape:connector-curvature="0"
         id="path27176"
         d="m 0,2063.598 2475.249,0 L 2475.249,0 0,0 0,2063.598 Z" />
    </clipPath>
    <clipPath
       id="clipPath27228"
       clipPathUnits="userSpaceOnUse">
      <path
         inkscape:connector-curvature="0"
         id="path27230"
         d="m 0,2063.598 2475.249,0 L 2475.249,0 0,0 0,2063.598 Z" />
    </clipPath>
    <clipPath
       id="clipPath27244"
       clipPathUnits="userSpaceOnUse">
      <path
         inkscape:connector-curvature="0"
         id="path27246"
         d="m 0,2063.598 2475.249,0 L 2475.249,0 0,0 0,2063.598 Z" />
    </clipPath>
    <clipPath
       id="clipPath27314"
       clipPathUnits="userSpaceOnUse">
      <path
         inkscape:connector-curvature="0"
         id="path27316"
         d="m 0,2063.598 2475.249,0 L 2475.249,0 0,0 0,2063.598 Z" />
    </clipPath>
    <clipPath
       id="clipPath27710"
       clipPathUnits="userSpaceOnUse">
      <path
         inkscape:connector-curvature="0"
         id="path27712"
         d="m 0,2063.598 2475.249,0 L 2475.249,0 0,0 0,2063.598 Z" />
    </clipPath>
    <clipPath
       id="clipPath27850"
       clipPathUnits="userSpaceOnUse">
      <path
         inkscape:connector-curvature="0"
         id="path27852"
         d="m 0,2063.598 2475.249,0 L 2475.249,0 0,0 0,2063.598 Z" />
    </clipPath>
  </defs>
  <metadata
     id="metadata26339">
    <rdf:RDF>
      <cc:Work
         rdf:about="">
        <dc:format>image/svg+xml</dc:format>
        <dc:type
           rdf:resource="http://purl.org/dc/dcmitype/StillImage" />
        <dc:title></dc:title>
      </cc:Work>
    </rdf:RDF>
  </metadata>
  <g
     inkscape:label="Layer 1"
     inkscape:groupmode="layer"
     id="layer1"
     transform="translate(0,1927.5591)">
    <g
       transform="translate(1015.092,27.300763)"
       id="g33221">
      <g
         transform="matrix(0,1.25,1.25,0,-965.57142,763.64078)"
         id="g27318"
         style="stroke:#000000;stroke-opacity:1">
        <path
           inkscape:connector-curvature="0"
           id="path27320"
           style="fill:none;stroke:#000000;stroke-width:0.21600001;stroke-linecap:butt;stroke-linejoin:bevel;stroke-miterlimit:2.61299992;stroke-dasharray:none;stroke-opacity:1"
           d="M 0,0 C -14.418,-10.528 -27.777,-16.52 -38.924,-16.672" />
      </g>
      <g
         transform="matrix(0,1.25,1.25,0,-397.0143,773.49677)"
         id="g27322"
         style="stroke:#000000;stroke-opacity:1">
        <path
           inkscape:connector-curvature="0"
           id="path27324"
           style="fill:none;stroke:#000000;stroke-width:0.21600001;stroke-linecap:butt;stroke-linejoin:bevel;stroke-miterlimit:2.61299992;stroke-dasharray:none;stroke-opacity:1"
           d="M 0,0 C 269.617,-35.091 103.076,-371.516 -6.135,-453.55" />
      </g>
      <g
         transform="matrix(0,1.25,1.25,0,-393.30942,711.66815)"
         id="g27326"
         style="stroke:#000000;stroke-opacity:1">
        <path
           inkscape:connector-curvature="0"
           id="path27328"
           style="fill:none;stroke:#000000;stroke-width:0.21600001;stroke-linecap:butt;stroke-linejoin:bevel;stroke-miterlimit:2.61299992;stroke-dasharray:none;stroke-opacity:1"
           d="M 0,0 C 17.213,0.019 33.084,-0.922 47.689,-2.738" />
      </g>
      <g
         transform="matrix(0,1.25,1.25,0,-630.8448,756.16028)"
         id="g27330"
         style="stroke:#000000;stroke-opacity:1">
        <path
           inkscape:connector-curvature="0"
           id="path27332"
           style="fill:none;stroke:#000000;stroke-width:0.21600001;stroke-linecap:butt;stroke-linejoin:bevel;stroke-miterlimit:2.61299992;stroke-dasharray:none;stroke-opacity:1"
           d="M 0,0 C 17.357,16.481 17.861,41.701 -0.271,60.393" />
      </g>
      <g
         transform="matrix(0,1.25,1.25,0,-585.81555,710.98203)"
         id="g27334"
         style="stroke:#000000;stroke-opacity:1">
        <path
           inkscape:connector-curvature="0"
           id="path27336"
           style="fill:none;stroke:#000000;stroke-width:0.21600001;stroke-linecap:butt;stroke-linejoin:bevel;stroke-miterlimit:2.61299992;stroke-dasharray:none;stroke-opacity:1"
           d="M 0,0 35.871,24.37" />
      </g>
      <g
         transform="matrix(0,1.25,1.25,0,-601.2208,711.18228)"
         id="g27338"
         style="stroke:#000000;stroke-opacity:1">
        <path
           inkscape:connector-curvature="0"
           id="path27340"
           style="fill:none;stroke:#000000;stroke-width:0.21600001;stroke-linecap:butt;stroke-linejoin:bevel;stroke-miterlimit:2.61299992;stroke-dasharray:none;stroke-opacity:1"
           d="M 0,0 35.715,-23.601" />
      </g>
      <g
         transform="matrix(0,1.25,1.25,0,-986.4113,714.98603)"
         id="g27342"
         style="stroke:#000000;stroke-opacity:1">
        <path
           inkscape:connector-curvature="0"
           id="path27344"
           style="fill:none;stroke:#000000;stroke-width:0.21600001;stroke-linecap:butt;stroke-linejoin:bevel;stroke-miterlimit:2.61299992;stroke-dasharray:none;stroke-opacity:1"
           d="M 0,0 C -82.418,0 -193.639,224.542 -193.639,224.542" />
      </g>
      <g
         transform="matrix(0,1.25,1.25,0,-705.7338,472.93765)"
         id="g27346"
         style="stroke:#000000;stroke-opacity:1">
        <path
           inkscape:connector-curvature="0"
           id="path27348"
           style="fill:none;stroke:#000000;stroke-width:0.21600001;stroke-linecap:butt;stroke-linejoin:bevel;stroke-miterlimit:2.61299992;stroke-dasharray:none;stroke-opacity:1"
           d="M 0,0 C -11.877,19.449 -27.611,50.537 -76.611,78.162" />
      </g>
      <g
         transform="matrix(0,1.25,1.25,0,-601.2208,477.1954)"
         id="g27350"
         style="stroke:#000000;stroke-opacity:1">
        <path
           inkscape:connector-curvature="0"
           id="path27352"
           style="fill:none;stroke:#000000;stroke-width:0.21600001;stroke-linecap:butt;stroke-linejoin:bevel;stroke-miterlimit:2.61299992;stroke-dasharray:none;stroke-opacity:1"
           d="M 0,0 -38.627,0" />
      </g>
      <g
         transform="matrix(0,1.25,1.25,0,-898.06405,711.67052)"
         id="g27354"
         style="stroke:#000000;stroke-opacity:1">
        <path
           inkscape:connector-curvature="0"
           id="path27356"
           style="fill:none;stroke:#000000;stroke-width:0.21600001;stroke-linecap:butt;stroke-linejoin:bevel;stroke-miterlimit:2.61299992;stroke-dasharray:none;stroke-opacity:1"
           d="M 0,0 -94.537,0" />
      </g>
      <g
         transform="matrix(0,1.25,1.25,0,-392.63192,710.79165)"
         id="g27358"
         style="stroke:#000000;stroke-opacity:1">
        <path
           inkscape:connector-curvature="0"
           id="path27360"
           style="fill:none;stroke:#000000;stroke-width:0.21600001;stroke-linecap:butt;stroke-linejoin:bevel;stroke-miterlimit:2.61299992;stroke-dasharray:none;stroke-opacity:1"
           d="M 0,0 0,-0.542" />
      </g>
      <g
         transform="matrix(0,1.25,1.25,0,-393.30942,710.79165)"
         id="g27362"
         style="stroke:#000000;stroke-opacity:1">
        <path
           inkscape:connector-curvature="0"
           id="path27364"
           style="fill:none;stroke:#000000;stroke-width:0.21600001;stroke-linecap:butt;stroke-linejoin:bevel;stroke-miterlimit:2.61299992;stroke-dasharray:none;stroke-opacity:1"
           d="M 0,0 0.701,0" />
      </g>
      <g
         style="stroke:#ff0000;stroke-opacity:1"
         transform="matrix(0,1.25,1.25,0,-585.81555,711.1164)"
         id="g27366">
        <path
           inkscape:connector-curvature="0"
           id="path27368"
           style="fill:none;stroke:#ff0000;stroke-width:0.21600001;stroke-linecap:butt;stroke-linejoin:bevel;stroke-miterlimit:2.61299992;stroke-dasharray:none;stroke-opacity:1"
           d="M 0,0 -0.26,154.005" />
      </g>
      <g
         style="stroke:#ff0000;stroke-opacity:1"
         transform="matrix(0,1.25,1.25,0,-898.06405,711.67052)"
         id="g27370">
        <path
           inkscape:connector-curvature="0"
           id="path27372"
           style="fill:none;stroke:#ff0000;stroke-width:0.21600001;stroke-linecap:butt;stroke-linejoin:bevel;stroke-miterlimit:2.61299992;stroke-dasharray:none;stroke-opacity:1"
           d="M 0,0 -0.396,237.475" />
      </g>
      <g
         transform="matrix(0,1.25,1.25,0,-585.81555,711.1164)"
         id="g27374"
         style="stroke:#000000;stroke-opacity:1">
        <path
           inkscape:connector-curvature="0"
           id="path27376"
           style="fill:none;stroke:#000000;stroke-width:0.21600001;stroke-linecap:butt;stroke-linejoin:bevel;stroke-miterlimit:2.61299992;stroke-dasharray:none;stroke-opacity:1"
           d="M 0,0 -40.553,0" />
      </g>
      <g
         transform="matrix(0,1.25,1.25,0,-393.30942,710.79165)"
         id="g27378"
         style="stroke:#000000;stroke-opacity:1">
        <path
           inkscape:connector-curvature="0"
           id="path27380"
           style="fill:none;stroke:#000000;stroke-width:0.21600001;stroke-linecap:butt;stroke-linejoin:bevel;stroke-miterlimit:2.61299992;stroke-dasharray:none;stroke-opacity:1"
           d="M 0,0 -40.293,0" />
      </g>
      <g
         transform="matrix(0,1.25,1.25,0,-393.30942,660.4254)"
         id="g27382"
         style="stroke:#000000;stroke-opacity:1">
        <path
           inkscape:connector-curvature="0"
           id="path27384"
           style="fill:none;stroke:#000000;stroke-width:0.21600001;stroke-linecap:butt;stroke-linejoin:bevel;stroke-miterlimit:2.61299992;stroke-dasharray:none;stroke-opacity:1"
           d="M 0,0 0,-153.719" />
      </g>
      <g
         transform="matrix(0,1.25,1.25,0,-601.2208,477.1954)"
         id="g27386"
         style="stroke:#000000;stroke-opacity:1">
        <path
           inkscape:connector-curvature="0"
           id="path27388"
           style="fill:none;stroke:#000000;stroke-width:0.21600001;stroke-linecap:butt;stroke-linejoin:bevel;stroke-miterlimit:2.61299992;stroke-dasharray:none;stroke-opacity:1"
           d="M 0,0 0,12.468" />
      </g>
      <g
         transform="matrix(0,1.25,1.25,0,-601.03042,635.42052)"
         id="g27390"
         style="stroke:#000000;stroke-opacity:1">
        <path
           inkscape:connector-curvature="0"
           id="path27392"
           style="fill:none;stroke:#000000;stroke-width:0.21600001;stroke-linecap:butt;stroke-linejoin:bevel;stroke-miterlimit:2.61299992;stroke-dasharray:none;stroke-opacity:1"
           d="M 0,0 0,12.315" />
      </g>
      <g
         transform="matrix(0,1.25,1.25,0,-585.63617,554.96153)"
         id="g27394"
         style="stroke:#000000;stroke-opacity:1">
        <path
           inkscape:connector-curvature="0"
           id="path27396"
           style="fill:none;stroke:#000000;stroke-width:0.21600001;stroke-linecap:butt;stroke-linejoin:bevel;stroke-miterlimit:2.61299992;stroke-dasharray:none;stroke-opacity:1"
           d="M 0,0 -62.213,0" />
      </g>
      <g
         transform="matrix(0,1.25,1.25,0,-585.63617,635.42052)"
         id="g27398"
         style="stroke:#000000;stroke-opacity:1">
        <path
           inkscape:connector-curvature="0"
           id="path27400"
           style="fill:none;stroke:#000000;stroke-width:0.21600001;stroke-linecap:butt;stroke-linejoin:bevel;stroke-miterlimit:2.61299992;stroke-dasharray:none;stroke-opacity:1"
           d="M 0,0 -62.213,0" />
      </g>
      <g
         transform="matrix(0,1.25,1.25,0,-601.03042,635.42052)"
         id="g27402"
         style="stroke:#000000;stroke-opacity:1">
        <path
           inkscape:connector-curvature="0"
           id="path27404"
           style="fill:none;stroke:#000000;stroke-width:0.21600001;stroke-linecap:butt;stroke-linejoin:bevel;stroke-miterlimit:2.61299992;stroke-dasharray:none;stroke-opacity:1"
           d="M 0,0 60.297,-0.152" />
      </g>
      <g
         transform="matrix(0,1.25,1.25,0,-585.63617,428.91177)"
         id="g27406"
         style="stroke:#000000;stroke-opacity:1">
        <path
           inkscape:connector-curvature="0"
           id="path27408"
           style="fill:none;stroke:#000000;stroke-width:0.21600001;stroke-linecap:butt;stroke-linejoin:bevel;stroke-miterlimit:2.61299992;stroke-dasharray:none;stroke-opacity:1"
           d="M 0,0 0,-12.468" />
      </g>
      <g
         transform="matrix(0,1.25,1.25,0,-585.63617,428.91177)"
         id="g27410"
         style="stroke:#000000;stroke-opacity:1">
        <path
           inkscape:connector-curvature="0"
           id="path27412"
           style="fill:none;stroke:#000000;stroke-width:0.21600001;stroke-linecap:butt;stroke-linejoin:bevel;stroke-miterlimit:2.61299992;stroke-dasharray:none;stroke-opacity:1"
           d="M 0,0 -41.391,0" />
      </g>
      <g
         transform="matrix(0,1.25,1.25,0,-608.03117,377.17353)"
         id="g27414"
         style="stroke:#000000;stroke-opacity:1">
        <path
           inkscape:connector-curvature="0"
           id="path27416"
           style="fill:none;stroke:#000000;stroke-width:0.21600001;stroke-linecap:butt;stroke-linejoin:bevel;stroke-miterlimit:2.61299992;stroke-dasharray:none;stroke-opacity:1"
           d="M 0,0 C 0,0 -19.06,9.877 0,17.916" />
      </g>
      <g
         transform="matrix(0,1.25,1.25,0,-497.62342,828.1134)"
         id="g27418"
         style="stroke:#000000;stroke-opacity:1">
        <path
           inkscape:connector-curvature="0"
           id="path27420"
           style="fill:none;stroke:#000000;stroke-width:0.21600001;stroke-linecap:butt;stroke-linejoin:bevel;stroke-miterlimit:2.61299992;stroke-dasharray:none;stroke-opacity:1"
           d="M 0,0 -72,0" />
      </g>
    </g>
    <g
       transform="translate(59.668624,-410.66053)"
       id="g33051">
      <g
         transform="matrix(0,1.25,1.25,0,1942.9055,471.84259)"
         id="g27526"
         style="stroke:#000000;stroke-opacity:1">
        <path
           inkscape:connector-curvature="0"
           id="path27528"
           style="fill:none;stroke:#000000;stroke-width:0.5;stroke-linecap:butt;stroke-linejoin:miter;stroke-miterlimit:2.61299992;stroke-dasharray:none;stroke-opacity:1"
           d="m 0,0 7,0.32 c 3.685,0.168 6.606,3.235 6.487,6.92 L 12.54,36.517 m -35.98,-1.163 0.948,-29.276 c 0.119,-3.687 3.231,-6.607 6.92,-6.488 L -2.88,0" />
      </g>
      <g
         transform="matrix(0,1.25,1.25,0,738.61347,773.65646)"
         id="g27530"
         style="stroke:#000000;stroke-opacity:1">
        <path
           inkscape:connector-curvature="0"
           id="path27532"
           style="fill:none;stroke:#000000;stroke-width:0.21600001;stroke-linecap:butt;stroke-linejoin:bevel;stroke-miterlimit:2.61299992;stroke-dasharray:none;stroke-opacity:1"
           d="M 0,0 C -14.681,-188.322 -78.365,-521.877 -182.743,-522.976" />
      </g>
      <g
         transform="matrix(0,1.25,1.25,0,837.82357,71.17109)"
         id="g27534"
         style="stroke:#000000;stroke-opacity:1">
        <path
           inkscape:connector-curvature="0"
           id="path27536"
           style="fill:none;stroke:#000000;stroke-width:0.21600001;stroke-linecap:butt;stroke-linejoin:bevel;stroke-miterlimit:2.61299992;stroke-dasharray:none;stroke-opacity:1"
           d="m 0,0 c -29.973,97.899 -51.869,189.009 -62.164,250.587 -44.801,246.01 -63.326,504.635 -68.199,659.092" />
      </g>
      <g
         transform="matrix(0,1.25,1.25,0,145.1271,437.17696)"
         id="g27538"
         style="stroke:#000000;stroke-opacity:1">
        <path
           inkscape:connector-curvature="0"
           id="path27540"
           style="fill:none;stroke:#000000;stroke-width:0.21600001;stroke-linecap:butt;stroke-linejoin:bevel;stroke-miterlimit:2.61299992;stroke-dasharray:none;stroke-opacity:1"
           d="m 0,0 c -93.797,84.162 -175.829,248.959 -189.166,277.613 -39.471,84.796 -74.771,182.527 -102.99,274.431" />
      </g>
      <g
         transform="matrix(0,1.25,1.25,0,84.89397,545.22759)"
         id="g27542"
         style="stroke:#000000;stroke-opacity:1">
        <path
           inkscape:connector-curvature="0"
           id="path27544"
           style="fill:none;stroke:#000000;stroke-width:0.21600001;stroke-linecap:butt;stroke-linejoin:bevel;stroke-miterlimit:2.61299992;stroke-dasharray:none;stroke-opacity:1"
           d="M 0,0 C -28.283,4.692 -57.036,22.128 -84.792,46.717" />
      </g>
      <g
         style="stroke:#ff0000;stroke-opacity:1"
         transform="matrix(0,1.25,1.25,0,151.2086,631.34208)"
         id="g27546">
        <path
           inkscape:connector-curvature="0"
           id="path27548"
           style="fill:none;stroke:#ff0000;stroke-width:0.21600001;stroke-linecap:butt;stroke-linejoin:bevel;stroke-miterlimit:2.61299992;stroke-dasharray:none;stroke-opacity:1"
           d="M 0,0 -47.414,1472.15" />
      </g>
      <g
         style="stroke:#ff0000;stroke-opacity:1"
         transform="matrix(0,1.25,1.25,0,101.56022,497.87146)"
         id="g27550">
        <path
           inkscape:connector-curvature="0"
           id="path27552"
           style="fill:none;stroke:#ff0000;stroke-width:0.21600001;stroke-linecap:butt;stroke-linejoin:bevel;stroke-miterlimit:2.61299992;stroke-dasharray:none;stroke-opacity:1"
           d="M 0,0 -48.584,1508.43" />
      </g>
      <g
         style="stroke:#ff0000;stroke-opacity:1"
         transform="matrix(0,1.25,1.25,0,1040.4958,210.87821)"
         id="g27554">
        <path
           inkscape:connector-curvature="0"
           id="path27556"
           style="fill:none;stroke:#ff0000;stroke-width:0.21600001;stroke-linecap:butt;stroke-linejoin:bevel;stroke-miterlimit:2.61299992;stroke-dasharray:none;stroke-opacity:1"
           d="M 0,0 128.787,-660.518" />
      </g>
      <g
         transform="matrix(0,1.25,1.25,0,1040.4958,210.87821)"
         id="g27558"
         style="stroke:#000000;stroke-opacity:1">
        <path
           inkscape:connector-curvature="0"
           id="path27560"
           style="fill:none;stroke:#000000;stroke-width:0.21600001;stroke-linecap:butt;stroke-linejoin:bevel;stroke-miterlimit:2.61299992;stroke-dasharray:none;stroke-opacity:1"
           d="M 0,0 -154.631,-4.98" />
      </g>
      <g
         transform="matrix(0,1.25,1.25,0,1974.9783,-88.45529)"
         id="g27562"
         style="stroke:#000000;stroke-opacity:1">
        <path
           inkscape:connector-curvature="0"
           id="path27564"
           style="fill:none;stroke:#000000;stroke-width:0.21600001;stroke-linecap:butt;stroke-linejoin:bevel;stroke-miterlimit:2.61299992;stroke-dasharray:none;stroke-opacity:1"
           d="M 0,0 C 0,0 558.549,9.316 687.743,22.018" />
      </g>
      <g
         transform="matrix(0,1.25,1.25,0,739.1701,773.72246)"
         id="g27566"
         style="stroke:#000000;stroke-opacity:1">
        <path
           inkscape:connector-curvature="0"
           id="path27568"
           style="fill:none;stroke:#000000;stroke-width:0.21600001;stroke-linecap:butt;stroke-linejoin:bevel;stroke-miterlimit:2.61299992;stroke-dasharray:none;stroke-opacity:1"
           d="M 0,0 382.711,-12.941" />
      </g>
      <g
         transform="matrix(0,1.25,1.25,0,1779.668,1028.9336)"
         id="g27570"
         style="stroke:#000000;stroke-opacity:1">
        <path
           inkscape:connector-curvature="0"
           id="path27572"
           style="fill:none;stroke:#000000;stroke-width:0.21600001;stroke-linecap:butt;stroke-linejoin:bevel;stroke-miterlimit:2.61299992;stroke-dasharray:none;stroke-opacity:1"
           d="m 0,0 c 0.655,19.83 1.398,42.311 1.398,42.311 l -24.465,0.806 C -23.413,32.672 -23.708,23.744 -23.96,16.111 l -1.486,-44.955 m 0,0 24.468,-0.808 c 0,0 0.401,12.164 0.875,26.488" />
      </g>
      <g
         transform="matrix(0,1.25,1.25,0,960.05637,1001.9621)"
         id="g27574"
         style="stroke:#000000;stroke-opacity:1">
        <path
           inkscape:connector-curvature="0"
           id="path27576"
           style="fill:none;stroke:#000000;stroke-width:0.21600001;stroke-linecap:butt;stroke-linejoin:bevel;stroke-miterlimit:2.61299992;stroke-dasharray:none;stroke-opacity:1"
           d="m 0,0 c 0.646,19.562 1.362,41.25 1.362,41.25 l -24.467,0.809 -2.377,-71.961 24.466,-0.809 c 0,0 0.443,13.396 0.945,28.627" />
      </g>
      <g
         transform="matrix(0,1.25,1.25,0,1041.2234,1317.9155)"
         id="g27578"
         style="stroke:#000000;stroke-opacity:1">
        <path
           inkscape:connector-curvature="0"
           id="path27580"
           style="fill:none;stroke:#000000;stroke-width:0.21600001;stroke-linecap:butt;stroke-linejoin:bevel;stroke-miterlimit:2.61299992;stroke-dasharray:none;stroke-opacity:1"
           d="m 0,0 19.089,93.424 c 45.006,245.974 63.75,504.58 68.752,659.035" />
      </g>
      <g
         transform="matrix(0,1.25,1.25,0,1041.2234,1317.9155)"
         id="g27582"
         style="stroke:#000000;stroke-opacity:1">
        <path
           inkscape:connector-curvature="0"
           id="path27584"
           style="fill:none;stroke:#000000;stroke-width:0.21600001;stroke-linecap:butt;stroke-linejoin:bevel;stroke-miterlimit:2.61299992;stroke-dasharray:none;stroke-opacity:1"
           d="M 0,0 -50.354,-254.348" />
      </g>
      <g
         transform="matrix(0,1.25,1.25,0,1981.5236,1424.511)"
         id="g27586"
         style="stroke:#000000;stroke-opacity:1">
        <path
           inkscape:connector-curvature="0"
           id="path27588"
           style="fill:none;stroke:#000000;stroke-width:0.21600001;stroke-linecap:butt;stroke-linejoin:bevel;stroke-miterlimit:2.61299992;stroke-dasharray:none;stroke-opacity:1"
           d="M 0,0 -518.006,17.414" />
      </g>
      <g
         transform="matrix(0,1.25,1.25,0,694.9941,160.56809)"
         id="g27590"
         style="stroke:#000000;stroke-opacity:1">
        <path
           inkscape:connector-curvature="0"
           id="path27592"
           style="fill:none;stroke:#000000;stroke-width:0.21600001;stroke-linecap:butt;stroke-linejoin:bevel;stroke-miterlimit:2.61299992;stroke-dasharray:none;stroke-opacity:1"
           d="M 0,0 71.963,2.317" />
      </g>
      <g
         style="stroke:#ff0000;stroke-opacity:1"
         transform="matrix(0,1.25,1.25,0,2002.5003,774.06658)"
         id="g27598">
        <path
           inkscape:connector-curvature="0"
           id="path27600"
           style="fill:none;stroke:#ff0000;stroke-width:0.21600001;stroke-linecap:butt;stroke-linejoin:bevel;stroke-miterlimit:2.61299992;stroke-dasharray:none;stroke-opacity:1"
           d="M 0,0 0,-1011.109" />
      </g>
      <g
         transform="matrix(0,1.25,1.25,0,1041.2234,1317.9155)"
         id="g27602"
         style="stroke:#000000;stroke-opacity:1">
        <path
           inkscape:connector-curvature="0"
           id="path27604"
           style="fill:none;stroke:#000000;stroke-width:0.21600001;stroke-linecap:butt;stroke-linejoin:bevel;stroke-miterlimit:2.61299992;stroke-dasharray:none;stroke-opacity:1"
           d="m 0,0 19.089,93.424 c 45.006,245.974 63.75,504.58 68.752,659.035" />
      </g>
      <g
         transform="matrix(0,1.25,1.25,0,1041.2234,1317.9155)"
         id="g27606"
         style="stroke:#000000;stroke-opacity:1">
        <path
           inkscape:connector-curvature="0"
           id="path27608"
           style="fill:none;stroke:#000000;stroke-width:0.21600001;stroke-linecap:butt;stroke-linejoin:bevel;stroke-miterlimit:2.61299992;stroke-dasharray:none;stroke-opacity:1"
           d="M 0,0 -50.354,-254.348" />
      </g>
    </g>
    <g
       style="stroke:#000000;stroke-opacity:1"
       id="g27498"
       transform="matrix(0,1.25,1.25,0,1099.624,-1208.4756)" />
    <g
       style="stroke:#000000;stroke-opacity:1"
       id="g27522"
       transform="matrix(0,1.25,1.25,0,1063.7487,-1288.2753)" />
    <g
       transform="translate(273.77368,800.26154)"
       id="g33131">
      <g
         transform="matrix(0,1.25,1.25,0,-164.05152,-2146.7958)"
         id="g27618"
         style="stroke:#000000;stroke-opacity:1">
        <path
           inkscape:connector-curvature="0"
           id="path27620"
           style="fill:none;stroke:#000000;stroke-width:0.5;stroke-linecap:butt;stroke-linejoin:miter;stroke-miterlimit:2.61299992;stroke-dasharray:none;stroke-opacity:1"
           d="m 0,0 10.871,-0.443 c 3.688,-0.151 6.608,-3.237 6.488,-6.922 l -0.947,-29.278 m -35.98,1.164 0.947,29.278 c 0.119,3.687 3.232,6.605 6.921,6.486 L -2.881,0" />
      </g>
      <g
         transform="matrix(0,1.25,1.25,0,1040.0842,-1840.143)"
         id="g27622"
         style="stroke:#000000;stroke-opacity:1">
        <path
           inkscape:connector-curvature="0"
           id="path27624"
           style="fill:none;stroke:#000000;stroke-width:0.21600001;stroke-linecap:butt;stroke-linejoin:bevel;stroke-miterlimit:2.61299992;stroke-dasharray:none;stroke-opacity:1"
           d="M 0,0 C -14.68,188.322 -78.365,521.876 -182.741,522.975" />
      </g>
      <g
         transform="matrix(0,1.25,1.25,0,940.8727,-2542.6271)"
         id="g27626"
         style="stroke:#000000;stroke-opacity:1">
        <path
           inkscape:connector-curvature="0"
           id="path27628"
           style="fill:none;stroke:#000000;stroke-width:0.21600001;stroke-linecap:butt;stroke-linejoin:bevel;stroke-miterlimit:2.61299992;stroke-dasharray:none;stroke-opacity:1"
           d="m 0,0 c -29.974,-97.896 -51.87,-189.008 -62.163,-250.584 -44.803,-246.012 -63.328,-504.635 -68.201,-659.094" />
      </g>
      <g
         transform="matrix(0,1.25,1.25,0,1633.5704,-2176.6225)"
         id="g27630"
         style="stroke:#000000;stroke-opacity:1">
        <path
           inkscape:connector-curvature="0"
           id="path27632"
           style="fill:none;stroke:#000000;stroke-width:0.21600001;stroke-linecap:butt;stroke-linejoin:bevel;stroke-miterlimit:2.61299992;stroke-dasharray:none;stroke-opacity:1"
           d="m 0,0 c -93.796,-84.163 -175.828,-248.959 -189.166,-277.613 -39.471,-84.796 -74.771,-182.528 -102.99,-274.432" />
      </g>
      <g
         transform="matrix(0,1.25,1.25,0,1693.8031,-2068.5695)"
         id="g27634"
         style="stroke:#000000;stroke-opacity:1">
        <path
           inkscape:connector-curvature="0"
           id="path27636"
           style="fill:none;stroke:#000000;stroke-width:0.21600001;stroke-linecap:butt;stroke-linejoin:bevel;stroke-miterlimit:2.61299992;stroke-dasharray:none;stroke-opacity:1"
           d="M 0,0 C -28.283,-4.692 -57.038,-22.129 -84.794,-46.716" />
      </g>
      <g
         style="stroke:#ff0000;stroke-opacity:1"
         transform="matrix(0,1.25,1.25,0,1627.489,-1982.4575)"
         id="g27638">
        <path
           inkscape:connector-curvature="0"
           id="path27640"
           style="fill:none;stroke:#ff0000;stroke-width:0.21600001;stroke-linecap:butt;stroke-linejoin:bevel;stroke-miterlimit:2.61299992;stroke-dasharray:none;stroke-opacity:1"
           d="M 0,0 -47.414,-1472.15" />
      </g>
      <g
         style="stroke:#ff0000;stroke-opacity:1"
         transform="matrix(0,1.25,1.25,0,1677.1379,-2115.9267)"
         id="g27642">
        <path
           inkscape:connector-curvature="0"
           id="path27644"
           style="fill:none;stroke:#ff0000;stroke-width:0.21600001;stroke-linecap:butt;stroke-linejoin:bevel;stroke-miterlimit:2.61299992;stroke-dasharray:none;stroke-opacity:1"
           d="M 0,0 -48.584,-1508.43" />
      </g>
      <g
         style="fill:#000000;fill-opacity:1;stroke:#ff0000;stroke-opacity:1"
         transform="matrix(0,1.25,1.25,0,738.20435,-2402.9213)"
         id="g27646">
        <path
           inkscape:connector-curvature="0"
           id="path27648"
           style="fill:#000000;fill-opacity:1;stroke:#ff0000;stroke-width:0.21600001;stroke-linecap:butt;stroke-linejoin:bevel;stroke-miterlimit:2.61299992;stroke-dasharray:none;stroke-opacity:1"
           d="M 0,0 128.787,660.516" />
      </g>
      <g
         transform="matrix(0,1.25,1.25,0,738.20435,-2402.9213)"
         id="g27650"
         style="stroke:#000000;stroke-opacity:1">
        <path
           inkscape:connector-curvature="0"
           id="path27652"
           style="fill:none;stroke:#000000;stroke-width:0.21600001;stroke-linecap:butt;stroke-linejoin:bevel;stroke-miterlimit:2.61299992;stroke-dasharray:none;stroke-opacity:1"
           d="M 0,0 -154.631,4.98" />
      </g>
      <g
         transform="matrix(0,1.25,1.25,0,-196.28052,-2702.2548)"
         id="g27654"
         style="stroke:#000000;stroke-opacity:1">
        <path
           inkscape:connector-curvature="0"
           id="path27656"
           style="fill:none;stroke:#000000;stroke-width:0.21600001;stroke-linecap:butt;stroke-linejoin:bevel;stroke-miterlimit:2.61299992;stroke-dasharray:none;stroke-opacity:1"
           d="M 0,0 C 0,0 558.549,-9.316 687.744,-22.016" />
      </g>
      <g
         transform="matrix(0,1.25,1.25,0,1039.5276,-1840.0759)"
         id="g27658"
         style="stroke:#000000;stroke-opacity:1">
        <path
           inkscape:connector-curvature="0"
           id="path27660"
           style="fill:none;stroke:#000000;stroke-width:0.21600001;stroke-linecap:butt;stroke-linejoin:bevel;stroke-miterlimit:2.61299992;stroke-dasharray:none;stroke-opacity:1"
           d="M 0,0 382.712,12.943" />
      </g>
      <g
         transform="matrix(0,1.25,1.25,0,-8.21415,-1615.2407)"
         id="g27662"
         style="stroke:#000000;stroke-opacity:1">
        <path
           inkscape:connector-curvature="0"
           id="path27664"
           style="fill:none;stroke:#000000;stroke-width:0.21600001;stroke-linecap:butt;stroke-linejoin:bevel;stroke-miterlimit:2.61299992;stroke-dasharray:none;stroke-opacity:1"
           d="m 0,0 c -1.144,34.639 -1.146,34.639 -1.146,34.639 l 24.468,0.81 2.377,-71.963 -24.467,-0.808 c -0.49,14.838 -0.878,26.615 -1.188,35.965" />
      </g>
      <g
         transform="matrix(0,1.25,1.25,0,818.0969,-1642.4355)"
         id="g27666"
         style="stroke:#000000;stroke-opacity:1">
        <path
           inkscape:connector-curvature="0"
           id="path27668"
           style="fill:none;stroke:#000000;stroke-width:0.21600001;stroke-linecap:butt;stroke-linejoin:bevel;stroke-miterlimit:2.61299992;stroke-dasharray:none;stroke-opacity:1"
           d="m 0,0 c -1.002,30.34 -1.003,30.34 -1.003,30.34 l 24.466,0.806 2.379,-71.96 -24.467,-0.809 C 0.838,-25.371 0.422,-12.789 0.1,-3.049" />
      </g>
      <g
         transform="matrix(0,1.25,1.25,0,737.47435,-1295.8816)"
         id="g27670"
         style="stroke:#000000;stroke-opacity:1">
        <path
           inkscape:connector-curvature="0"
           id="path27672"
           style="fill:none;stroke:#000000;stroke-width:0.21600001;stroke-linecap:butt;stroke-linejoin:bevel;stroke-miterlimit:2.61299992;stroke-dasharray:none;stroke-opacity:1"
           d="m 0,0 19.087,-93.422 c 45.007,-245.975 63.751,-504.58 68.752,-659.035" />
      </g>
      <g
         transform="matrix(0,1.25,1.25,0,737.47435,-1295.8816)"
         id="g27674"
         style="stroke:#000000;stroke-opacity:1">
        <path
           inkscape:connector-curvature="0"
           id="path27676"
           style="fill:none;stroke:#000000;stroke-width:0.21600001;stroke-linecap:butt;stroke-linejoin:bevel;stroke-miterlimit:2.61299992;stroke-dasharray:none;stroke-opacity:1"
           d="M 0,0 -50.354,254.35" />
      </g>
      <g
         transform="matrix(0,1.25,1.25,0,-202.82602,-1189.2885)"
         id="g27678"
         style="stroke:#000000;stroke-opacity:1">
        <path
           inkscape:connector-curvature="0"
           id="path27680"
           style="fill:none;stroke:#000000;stroke-width:0.21600001;stroke-linecap:butt;stroke-linejoin:bevel;stroke-miterlimit:2.61299992;stroke-dasharray:none;stroke-opacity:1"
           d="M 0,0 -518.006,-17.412" />
      </g>
      <g
         transform="matrix(0,1.25,1.25,0,1083.7047,-2453.229)"
         id="g27682"
         style="stroke:#000000;stroke-opacity:1">
        <path
           inkscape:connector-curvature="0"
           id="path27684"
           style="fill:none;stroke:#000000;stroke-width:0.21600001;stroke-linecap:butt;stroke-linejoin:bevel;stroke-miterlimit:2.61299992;stroke-dasharray:none;stroke-opacity:1"
           d="M 0,0 71.962,-2.318" />
      </g>
      <g
         style="stroke:#ff0000;stroke-opacity:1"
         transform="matrix(0,1.25,1.25,0,-229.67165,-1839.7328)"
         id="g27690">
        <path
           inkscape:connector-curvature="0"
           id="path27692"
           style="fill:none;stroke:#ff0000;stroke-width:0.21600001;stroke-linecap:butt;stroke-linejoin:bevel;stroke-miterlimit:2.61299992;stroke-dasharray:none;stroke-opacity:1"
           d="M 0,0 0,1015.805" />
      </g>
    </g>
    <g
       style="stroke:#000000;stroke-opacity:1"
       id="g30878"
       transform="translate(2768.5714,-485.71429)">
      <path
         d="m -754.72378,-436.37683 -27.58421,322.9311"
         style="fill:none;stroke:#000000;stroke-width:0.27000001;stroke-linecap:butt;stroke-linejoin:bevel;stroke-miterlimit:2.61299992;stroke-dasharray:none;stroke-opacity:1"
         id="path27492"
         inkscape:connector-curvature="0" />
      <g
         style="stroke:#000000;stroke-opacity:1"
         transform="matrix(1.2310097,0.21706021,0.21706021,-1.2310097,-779.70105,-721.97051)"
         id="g27478">
        <path
           inkscape:connector-curvature="0"
           id="path27480"
           style="fill:none;stroke:#000000;stroke-width:0.21600001;stroke-linecap:butt;stroke-linejoin:bevel;stroke-miterlimit:2.61299992;stroke-dasharray:none;stroke-opacity:1"
           d="m 0,0 c -28.538,201.548 -70.769,392.982 -102.286,515.185 m 127.09,-746.831 -7.928,95.022 C 12.126,-91.019 7.157,-50.563 0.749,-5.308" />
      </g>
      <g
         style="stroke:#000000;stroke-opacity:1"
         transform="matrix(1.2310097,0.21706021,0.21706021,-1.2310097,-799.44835,-431.42875)"
         id="g27482">
        <path
           inkscape:connector-curvature="0"
           id="path27484"
           style="fill:none;stroke:#000000;stroke-width:0.21600001;stroke-linecap:butt;stroke-linejoin:bevel;stroke-miterlimit:2.61299992;stroke-dasharray:none;stroke-opacity:1"
           d="M 0,0 23.127,-258.253" />
      </g>
      <g
         style="stroke:#000000;stroke-opacity:1"
         transform="matrix(1.2310097,0.21706021,0.21706021,-1.2310097,-754.72378,-436.37683)"
         id="g27486">
        <path
           inkscape:connector-curvature="0"
           id="path27488"
           style="fill:none;stroke:#000000;stroke-width:0.21600001;stroke-linecap:butt;stroke-linejoin:bevel;stroke-miterlimit:2.61299992;stroke-dasharray:none;stroke-opacity:1"
           d="m 0,0 -7.928,95.023 c -25.906,248.712 -80.568,502.168 -119.159,651.81" />
      </g>
      <g
         style="stroke:#000000;stroke-opacity:1"
         transform="matrix(1.2310097,0.21706021,0.21706021,-1.2310097,-820.89911,-109.17513)"
         id="g27494">
        <path
           inkscape:connector-curvature="0"
           id="path27496"
           style="fill:none;stroke:#000000;stroke-width:0.5;stroke-linecap:butt;stroke-linejoin:miter;stroke-miterlimit:2.61299992;stroke-dasharray:none;stroke-opacity:1"
           d="M 0,0 25.069,7.338" />
      </g>
      <path
         sodipodi:nodetypes="cc"
         d="m -749.73792,-1383.312 c -29.59406,2.8646 -44.24552,6.4256 -44.51698,6.7601"
         style="fill:none;stroke:#000000;stroke-width:0.625;stroke-linecap:butt;stroke-linejoin:miter;stroke-miterlimit:2.61299992;stroke-dasharray:none;stroke-opacity:1"
         id="path27500"
         inkscape:connector-curvature="0" />
    </g>
    <g
       style="stroke:#000000;stroke-opacity:1"
       id="g30890"
       transform="matrix(-0.34202015,-0.93969262,0.93969262,-0.34202015,1025.102,-1358.2174)">
      <g
         style="stroke:#000000;stroke-opacity:1"
         transform="matrix(1.2310097,0.21706021,0.21706021,-1.2310097,-864.5168,-700.49841)"
         id="g27502">
        <path
           inkscape:connector-curvature="0"
           id="path27504"
           style="fill:none;stroke:#000000;stroke-width:0.21600001;stroke-linecap:butt;stroke-linejoin:bevel;stroke-miterlimit:2.61299992;stroke-dasharray:none;stroke-opacity:1"
           d="m 0,0 c -28.539,201.545 -70.771,392.982 -102.286,515.182 m 127.087,-746.83 -7.925,95.022 C 12.124,-91.021 7.154,-50.564 0.747,-5.308" />
      </g>
      <g
         style="stroke:#000000;stroke-opacity:1"
         transform="matrix(1.2310097,0.21706021,0.21706021,-1.2310097,-884.26856,-409.95374)"
         id="g27506">
        <path
           inkscape:connector-curvature="0"
           id="path27508"
           style="fill:none;stroke:#000000;stroke-width:0.21600001;stroke-linecap:butt;stroke-linejoin:bevel;stroke-miterlimit:2.61299992;stroke-dasharray:none;stroke-opacity:1"
           d="M 0,0 23.129,-258.252" />
      </g>
      <g
         style="stroke:#000000;stroke-opacity:1"
         transform="matrix(1.2310097,0.21706021,0.21706021,-1.2310097,-839.54086,-414.90369)"
         id="g27510">
        <path
           inkscape:connector-curvature="0"
           id="path27512"
           style="fill:none;stroke:#000000;stroke-width:0.21600001;stroke-linecap:butt;stroke-linejoin:bevel;stroke-miterlimit:2.61299992;stroke-dasharray:none;stroke-opacity:1"
           d="M 0,0 -7.928,95.022 C -33.833,343.734 -88.496,597.191 -127.088,746.83" />
      </g>
      <g
         style="stroke:#000000;stroke-opacity:1"
         transform="matrix(1.2310097,0.21706021,0.21706021,-1.2310097,-839.54086,-414.90369)"
         id="g27514">
        <path
           inkscape:connector-curvature="0"
           id="path27516"
           style="fill:none;stroke:#000000;stroke-width:0.21600001;stroke-linecap:butt;stroke-linejoin:bevel;stroke-miterlimit:2.61299992;stroke-dasharray:none;stroke-opacity:1"
           d="M 0,0 23.129,-258.253" />
      </g>
      <g
         style="stroke:#000000;stroke-opacity:1"
         transform="matrix(1.2310097,0.21706021,0.21706021,-1.2310097,-905.7161,-87.703236)"
         id="g27518">
        <path
           inkscape:connector-curvature="0"
           id="path27520"
           style="fill:none;stroke:#000000;stroke-width:0.5;stroke-linecap:butt;stroke-linejoin:miter;stroke-miterlimit:2.61299992;stroke-dasharray:none;stroke-opacity:1"
           d="M 0,0 25.069,7.338" />
      </g>
      <path
         sodipodi:nodetypes="cc"
         d="m -879.79469,-1355.4109 45.49985,-5.779"
         style="fill:none;stroke:#000000;stroke-width:0.625;stroke-linecap:butt;stroke-linejoin:miter;stroke-miterlimit:2.61299992;stroke-dasharray:none;stroke-opacity:1"
         id="path27524"
         inkscape:connector-curvature="0" />
    </g>
  </g>
  <g
     gcodetools="Gcodetools orientation group"
     id="g31104">
    <g
       gcodetools="Gcodetools orientation point (2 points)"
       id="g31106">
      <path
         style="stroke:none;fill:#000000;"
         d="m 0.0,2979.92125983 2.9375,-6.343750000001 0.8125,1.90625 6.843748640396,-6.84374864039 0,0 0.6875,0.6875 -6.84375,6.84375 1.90625,0.812500000001 z z"
         gcodetools="Gcodetools orientation point arrow"
         id="path31108" />
      <text
         y="2969.92125983"
         x="10.0"
         style="font-size:10px;font-style:normal;font-variant:normal;font-weight:normal;font-stretch:normal;fill:#000000;fill-opacity:1;stroke:none;"
         xml:space="preserve"
         gcodetools="Gcodetools orientation point text"
         id="text31110">(0.0; 0.0; 0.0)</text>
    </g>
    <g
       gcodetools="Gcodetools orientation point (2 points)"
       id="g31112">
      <path
         style="stroke:none;fill:#000000;"
         d="m 354.3307066,2979.92125983 2.9375,-6.343750000001 0.8125,1.90625 6.843748640396,-6.84374864039 0,0 0.6875,0.6875 -6.84375,6.84375 1.90625,0.812500000001 z z"
         gcodetools="Gcodetools orientation point arrow"
         id="path31114" />
      <text
         y="2969.92125983"
         x="364.3307066"
         style="font-size:10px;font-style:normal;font-variant:normal;font-weight:normal;font-stretch:normal;fill:#000000;fill-opacity:1;stroke:none;"
         xml:space="preserve"
         gcodetools="Gcodetools orientation point text"
         id="text31116">(100.0; 0.0; 0.0)</text>
    </g>
  </g>
  <defs
     id="defs31118">
    <marker
       refY="-2.41063"
       refX="-8"
       style="overflow:visible"
       id="DrawCurveMarker"
       orient="auto">
      <path
         style="fill:#000044; fill-rule:evenodd;stroke-width:0.62500000;stroke-linejoin:round;"
         d="m -6.55552,-2.41063 0,0 L -13.11104,0 c 1.0473,-1.42323 1.04126,-3.37047 0,-4.82126"
         id="path31121" />
    </marker>
  </defs>
  <defs
     id="defs31123">
    <marker
       refY="-2.41063"
       refX="8"
       style="overflow:visible"
       id="DrawCurveMarker_r"
       orient="auto">
      <path
         style="fill:#000044; fill-rule:evenodd;stroke-width:0.62500000;stroke-linejoin:round;"
         d="m 6.55552,-2.41063 0,0 L 13.11104,0 c -1.0473,-1.42323 -1.04126,-3.37047 0,-4.82126"
         id="path31126" />
    </marker>
  </defs>
</svg>
